<?xml version="1.0" encoding="UTF-8"?>
<svg version="1.1" xmlns="http://www.w3.org/2000/svg" width="169" height="169">
<path d="M0 0 C55.77 0 111.54 0 169 0 C169 55.77 169 111.54 169 169 C113.23 169 57.46 169 0 169 C0 113.23 0 57.46 0 0 Z " fill="#FEFEFE" transform="translate(0,0)"/>
<path d="M0 0 C3.15906933 2.04373716 4.33496426 4.66992853 6 8 C6.2322646 10.71262116 6.41936235 13.40773126 6.5625 16.125 C6.60568359 16.87910156 6.64886719 17.63320313 6.69335938 18.41015625 C6.7994832 20.27321888 6.90025001 22.13658524 7 24 C7.63292969 24.13664062 8.26585938 24.27328125 8.91796875 24.4140625 C11 25 11 25 12.3125 26.375 C16.60788418 30.51129588 21.74342033 31.1690133 27.4375 31.875 C34.60460058 32.87180364 39.0428434 35.12733359 44.1875 40.125 C47.84787226 45.93110773 51.45816921 51.9747388 51 59 C52.65 59 54.3 59 56 59 C56 81.11 56 103.22 56 126 C0.23 126 -55.54 126 -113 126 C-113 114.45 -113 102.9 -113 91 C-112.34 91 -111.68 91 -111 91 C-110.9071875 89.6078125 -110.9071875 89.6078125 -110.8125 88.1875 C-110.18762106 83.6081633 -108.1826327 79.76010938 -106.15625 75.6484375 C-105.03414861 73.07821876 -104.43854515 70.76084106 -104 68 C-105.65 67.34 -107.3 66.68 -109 66 C-106.50907189 64.75453595 -105.58919267 65.2232422 -103 66 C-98.06558319 54.28076007 -99.83627017 42.48931915 -101.5546875 30.23046875 C-102.44989397 22.86344609 -102.15427234 15.40507224 -102 8 C-101.67 8 -101.34 8 -101 8 C-100.67 11.96 -100.34 15.92 -100 20 C-99.04480469 19.7834375 -98.08960937 19.566875 -97.10546875 19.34375 C-89.30101301 17.64035238 -82.03652033 16.54888555 -74 17 C-72.56125399 27.57631377 -71.62276436 38.16533978 -70.875 48.8125 C-70.78750488 50.02703857 -70.70000977 51.24157715 -70.60986328 52.49291992 C-70.10172756 60.00811432 -69.89103321 67.4683196 -70 75 C-69.01 74.67 -68.02 74.34 -67 74 C-62.8255195 73.65809017 -59.07676604 73.60206472 -55.125 75.0625 C-48.42891541 77.07132538 -41.425257 75.33645709 -35 73 C-33.8759375 72.95359375 -32.751875 72.9071875 -31.59375 72.859375 C-27.76525167 72.33885377 -27.76525167 72.33885377 -25.671875 69.015625 C-25.00596327 67.77364677 -24.36581977 66.51756237 -23.75 65.25 C-23.09914502 64.00511071 -22.44810646 62.76031738 -21.796875 61.515625 C-21.20390625 60.35546875 -20.6109375 59.1953125 -20 58 C-18.453125 55.046875 -18.453125 55.046875 -17 53 C-16.01 53 -15.02 53 -14 53 C-14.70407346 58.26797825 -18.72357366 61.86285196 -21.96875 65.83203125 C-24.22038878 69.34372173 -24.71031691 71.87718884 -25 76 C-25.66 75.67 -26.32 75.34 -27 75 C-33.14559516 74.48786707 -38.20264551 76.04033088 -44 78 C-43.505 78.5775 -43.01 79.155 -42.5 79.75 C-41 82 -41 82 -41 86 C-40.236875 86.144375 -39.47375 86.28875 -38.6875 86.4375 C-36 87 -36 87 -33 88 C-32.13375 87.690625 -31.2675 87.38125 -30.375 87.0625 C-27.2559997 86.0805925 -25.65946329 85.96011219 -22.5 86.125 C-17.90876879 86.24074532 -15.59971702 84.93000222 -12 82 C-11.21625 81.525625 -10.4325 81.05125 -9.625 80.5625 C-7.7105336 79.06231225 -7.7105336 79.06231225 -7.75 76.3125 C-7.8325 75.549375 -7.915 74.78625 -8 74 C-6.35 74.33 -4.7 74.66 -3 75 C-3.00523682 74.28980713 -3.01047363 73.57961426 -3.01586914 72.84790039 C-3.03683761 69.5861095 -3.04972281 66.32433286 -3.0625 63.0625 C-3.07087891 61.94552734 -3.07925781 60.82855469 -3.08789062 59.67773438 C-3.10641749 53.36007333 -2.84339417 47.26236773 -2 41 C-5.96 43.475 -5.96 43.475 -10 46 C-10 45.34 -10 44.68 -10 44 C-11.485 43.505 -11.485 43.505 -13 43 C-13.33 42.01 -13.66 41.02 -14 40 C-14.66 39.67 -15.32 39.34 -16 39 C-16 38.34 -16 37.68 -16 37 C-17.485 36.505 -17.485 36.505 -19 36 C-19 35.01 -19 34.02 -19 33 C-19.61875 32.9175 -20.2375 32.835 -20.875 32.75 C-23 32 -23 32 -24.3125 30.0625 C-24.539375 29.381875 -24.76625 28.70125 -25 28 C-24.67 27.34 -24.34 26.68 -24 26 C-24.28307895 23.5799686 -24.28307895 23.5799686 -24.875 20.9375 C-25.05804688 20.03902344 -25.24109375 19.14054687 -25.4296875 18.21484375 C-25.78923869 16.04127982 -25.78923869 16.04127982 -27 15 C-27.1875 12.0625 -27.1875 12.0625 -27 9 C-26.34 8.34 -25.68 7.68 -25 7 C-24.01 7 -23.02 7 -22 7 C-21.67 6.01 -21.34 5.02 -21 4 C-14.8221323 -1.02849696 -7.71597323 -1.28128493 0 0 Z " fill="#917564" transform="translate(113,43)"/>
<path d="M0 0 C2.8125 0.3125 2.8125 0.3125 6 2 C7.4751853 5.57178566 8.27771105 9.21115095 9 13 C10.32 13.33 11.64 13.66 13 14 C12.67 11.69 12.34 9.38 12 7 C17.4315968 6.78273613 21.90609391 6.84923965 27 9 C28.31677734 9.54333984 28.31677734 9.54333984 29.66015625 10.09765625 C34.16299258 12.66242969 37.55435967 16.02411968 41.25 19.625 C42.67001543 20.99411882 44.09180447 22.36140124 45.515625 23.7265625 C46.13727539 24.33064941 46.75892578 24.93473633 47.39941406 25.55712891 C50.91303414 28.72453199 54.59333949 28.1273898 59.0703125 28.09765625 C59.86654022 28.0962413 60.66276794 28.09482635 61.48312378 28.09336853 C64.0304538 28.08776345 66.57769647 28.07521014 69.125 28.0625 C70.85025915 28.05748565 72.57551967 28.05292263 74.30078125 28.04882812 C78.53388791 28.03779237 82.76692914 28.02052436 87 28 C84.14597323 25.09718645 81.2153343 22.50081557 78 20 C83.75 19.875 83.75 19.875 86 21 C88.33077343 21.30791869 90.66241896 21.50895274 93.00390625 21.71875 C95 22 95 22 96 23 C98.14619037 22.88128787 100.29193312 22.75449311 102.4375 22.625 C114.72215934 22.3029196 126.36093761 26.51248944 138 30 C140.03892837 30.60071585 142.0779851 31.20099627 144.1171875 31.80078125 C148.75345234 33.17309644 153.37928876 34.57623683 158 36 C158 38.97 158 41.94 158 45 C102.23 45 46.46 45 -11 45 C-11 35.43 -11 25.86 -11 16 C-4 16 -4 16 -2.31616211 17.484375 C-1.66466187 18.23460937 -1.66466187 18.23460937 -1 19 C0.93899655 19.40062992 0.93899655 19.40062992 3.05859375 19.25 C3.85378418 19.22292969 4.64897461 19.19585937 5.46826172 19.16796875 C9.68081724 18.8884858 13.86854914 18.48153974 18.0625 18 C18.92810547 17.90460938 19.79371094 17.80921875 20.68554688 17.7109375 C22.79084969 17.47830736 24.89549956 17.23978031 27 17 C27.495 15.515 27.495 15.515 28 14 C25.525 13.505 25.525 13.505 23 13 C23.66 13.66 24.32 14.32 25 15 C3.61785095 19.24610052 3.61785095 19.24610052 -6 14 C-6 12.35 -6 10.7 -6 9 C-1.545 8.505 -1.545 8.505 3 8 C2.67 6.02 2.34 4.04 2 2 C1.34 2 0.68 2 0 2 C0 1.34 0 0.68 0 0 Z " fill="#FCF6DD" transform="translate(11,124)"/>
<path d="M0 0 C3.15906933 2.04373716 4.33496426 4.66992853 6 8 C6.2322646 10.71262116 6.41936235 13.40773126 6.5625 16.125 C6.60568359 16.87910156 6.64886719 17.63320313 6.69335938 18.41015625 C6.7994832 20.27321888 6.90025001 22.13658524 7 24 C7.63292969 24.13664062 8.26585937 24.27328125 8.91796875 24.4140625 C11 25 11 25 12.3125 26.375 C16.60788418 30.51129588 21.74342033 31.1690133 27.4375 31.875 C34.95203439 32.9040329 39.79136326 35.58617454 45 41 C44.505 41.99 44.505 41.99 44 43 C42.7625 42.9175 41.525 42.835 40.25 42.75 C37.38782176 42.78023428 36.24008103 42.85328381 33.75 44.375 C29.37980013 50.9302998 27.44291831 56.16692578 29 64 C29.80881282 67.61576498 30.67616628 71.21502785 31.5625 74.8125 C32.02416841 76.69351261 32.48390353 78.57500112 32.94140625 80.45703125 C33.14451416 81.28178955 33.34762207 82.10654785 33.55688477 82.95629883 C34 85 34 85 34 87 C36.64 86.01 39.28 85.02 42 84 C42 87.20395416 41.25664978 89.09399739 40 92 C39.45980225 91.84547363 38.91960449 91.69094727 38.36303711 91.53173828 C32.43920782 90.00354175 27.58271522 90.02224354 21.5625 90.875 C19.90152433 91.08203471 18.24006122 91.28519776 16.578125 91.484375 C15.79115234 91.57912109 15.00417969 91.67386719 14.19335938 91.77148438 C10.11065848 92.19684146 6.09664363 92.13431618 2 92 C0.29915181 86.67067568 -0.52013969 81.56890517 -1 76 C-2.65 76 -4.3 76 -6 76 C-5.67 77.65 -5.34 79.3 -5 81 C-5.78246094 81.48210937 -6.56492187 81.96421875 -7.37109375 82.4609375 C-8.38300781 83.09257813 -9.39492187 83.72421875 -10.4375 84.375 C-11.44683594 85.00148438 -12.45617187 85.62796875 -13.49609375 86.2734375 C-16.08011063 87.75816302 -16.08011063 87.75816302 -17 90 C-18.65 89.67 -20.3 89.34 -22 89 C-22 88.34 -22 87.68 -22 87 C-20.205625 86.4121875 -20.205625 86.4121875 -18.375 85.8125 C-14.05179434 84.17398967 -11.20009256 82.36009719 -8 79 C-7.49620971 76.28694223 -7.49620971 76.28694223 -8 74 C-6.35 74.33 -4.7 74.66 -3 75 C-3.00785522 73.93471069 -3.00785522 73.93471069 -3.01586914 72.84790039 C-3.03683761 69.5861095 -3.04972281 66.32433286 -3.0625 63.0625 C-3.07087891 61.94552734 -3.07925781 60.82855469 -3.08789062 59.67773438 C-3.10641749 53.36007333 -2.84339417 47.26236773 -2 41 C-5.96 43.475 -5.96 43.475 -10 46 C-10 45.34 -10 44.68 -10 44 C-11.485 43.505 -11.485 43.505 -13 43 C-13.495 41.515 -13.495 41.515 -14 40 C-14.66 39.67 -15.32 39.34 -16 39 C-16 38.34 -16 37.68 -16 37 C-16.99 36.67 -17.98 36.34 -19 36 C-19 35.01 -19 34.02 -19 33 C-19.61875 32.9175 -20.2375 32.835 -20.875 32.75 C-23 32 -23 32 -24.3125 30.0625 C-24.539375 29.381875 -24.76625 28.70125 -25 28 C-24.67 27.34 -24.34 26.68 -24 26 C-24.28307895 23.5799686 -24.28307895 23.5799686 -24.875 20.9375 C-25.05804688 20.03902344 -25.24109375 19.14054687 -25.4296875 18.21484375 C-25.78923869 16.04127982 -25.78923869 16.04127982 -27 15 C-27.1875 12.0625 -27.1875 12.0625 -27 9 C-26.34 8.34 -25.68 7.68 -25 7 C-24.01 7 -23.02 7 -22 7 C-21.67 6.01 -21.34 5.02 -21 4 C-14.8221323 -1.02849696 -7.71597323 -1.28128493 0 0 Z " fill="#63D3E9" transform="translate(113,43)"/>
<path d="M0 0 C0.680625 -0.01675781 1.36125 -0.03351563 2.0625 -0.05078125 C4.62110053 0.42895635 5.39656207 1.28448977 7 3.3125 C9.47767691 7.73751495 11.66784919 12.13666878 11 17.3125 C12.65 17.3125 14.3 17.3125 16 17.3125 C16 36.4525 16 55.5925 16 75.3125 C9.72155329 74.05681066 3.78696317 72.77660011 -2.2890625 70.9296875 C-3.82391152 70.47942015 -5.35907862 70.03023592 -6.89453125 69.58203125 C-9.25350945 68.88999278 -11.60990662 68.19210214 -13.96142578 67.47509766 C-24.93470919 64.14322236 -34.49703314 62.62173159 -46 63.3125 C-46.33 59.3525 -46.66 55.3925 -47 51.3125 C-48.98 51.3125 -50.96 51.3125 -53 51.3125 C-55.875 48.8125 -55.875 48.8125 -58 46.3125 C-56.21190303 45.14036955 -54.41940875 43.97494474 -52.625 42.8125 C-51.12839844 41.83796875 -51.12839844 41.83796875 -49.6015625 40.84375 C-47 39.3125 -47 39.3125 -45 39.3125 C-45.33 37.6625 -45.66 36.0125 -46 34.3125 C-44.35 34.3125 -42.7 34.3125 -41 34.3125 C-40.01 39.2625 -39.02 44.2125 -38 49.3125 C-29.83082099 49.453604 -21.95824266 48.7830685 -13.859375 47.75976562 C-8.31669282 47.16315747 -4.84359457 47.0861459 0 50.3125 C0 49.6525 0 48.9925 0 48.3125 C-0.99 47.8175 -0.99 47.8175 -2 47.3125 C-1.01 47.3125 -0.02 47.3125 1 47.3125 C1.33 45.9925 1.66 44.6725 2 43.3125 C1.13375 43.8075 1.13375 43.8075 0.25 44.3125 C-2 45.3125 -2 45.3125 -6 45.3125 C-7.17274004 41.28827529 -8.32761527 37.25958625 -9.4609375 33.22412109 C-9.95658766 31.46644864 -10.46219464 29.71159194 -10.96875 27.95703125 C-13.52663969 18.61362862 -12.65890429 13.07711504 -8.3515625 4.44921875 C-6.15797988 0.98132946 -3.93905503 0.02238099 0 0 Z " fill="#63D4EB" transform="translate(153,84.6875)"/>
<path d="M0 0 C3.15906933 2.04373716 4.33496426 4.66992853 6 8 C6.2322646 10.71262116 6.41936235 13.40773126 6.5625 16.125 C6.60568359 16.87910156 6.64886719 17.63320313 6.69335938 18.41015625 C6.7994832 20.27321888 6.90025001 22.13658524 7 24 C8.32 24.33 9.64 24.66 11 25 C9.81682317 30.80832264 7.91667457 35.42941745 5.0234375 40.60546875 C3.88942101 43.25872107 3.80727777 45.14466795 4 48 C3.34 48 2.68 48 2 48 C2.15984375 48.515625 2.3196875 49.03125 2.484375 49.5625 C3.15271021 52.7219028 3.15737463 55.77134423 3.25 59 C3.65596113 68.38245869 6.03544943 77.1833628 8.55688477 86.19091797 C9 88 9 88 9 90 C11.97 90 14.94 90 18 90 C18 90.33 18 90.66 18 91 C12.63904667 92.12862175 7.44693314 92.09688221 2 92 C0.29915181 86.67067568 -0.52013969 81.56890517 -1 76 C-2.65 76 -4.3 76 -6 76 C-5.67 77.65 -5.34 79.3 -5 81 C-5.78246094 81.48210937 -6.56492187 81.96421875 -7.37109375 82.4609375 C-8.38300781 83.09257813 -9.39492187 83.72421875 -10.4375 84.375 C-11.44683594 85.00148438 -12.45617187 85.62796875 -13.49609375 86.2734375 C-16.08011063 87.75816302 -16.08011063 87.75816302 -17 90 C-18.65 89.67 -20.3 89.34 -22 89 C-22 88.34 -22 87.68 -22 87 C-20.205625 86.4121875 -20.205625 86.4121875 -18.375 85.8125 C-14.05179434 84.17398967 -11.20009256 82.36009719 -8 79 C-7.49620971 76.28694223 -7.49620971 76.28694223 -8 74 C-6.35 74.33 -4.7 74.66 -3 75 C-3.00785522 73.93471069 -3.00785522 73.93471069 -3.01586914 72.84790039 C-3.03683761 69.5861095 -3.04972281 66.32433286 -3.0625 63.0625 C-3.07087891 61.94552734 -3.07925781 60.82855469 -3.08789062 59.67773438 C-3.10641749 53.36007333 -2.84339417 47.26236773 -2 41 C-5.96 43.475 -5.96 43.475 -10 46 C-10 45.34 -10 44.68 -10 44 C-11.485 43.505 -11.485 43.505 -13 43 C-13.495 41.515 -13.495 41.515 -14 40 C-14.66 39.67 -15.32 39.34 -16 39 C-16 38.34 -16 37.68 -16 37 C-16.99 36.67 -17.98 36.34 -19 36 C-19 35.01 -19 34.02 -19 33 C-19.61875 32.9175 -20.2375 32.835 -20.875 32.75 C-23 32 -23 32 -24.3125 30.0625 C-24.539375 29.381875 -24.76625 28.70125 -25 28 C-24.67 27.34 -24.34 26.68 -24 26 C-24.28307895 23.5799686 -24.28307895 23.5799686 -24.875 20.9375 C-25.05804688 20.03902344 -25.24109375 19.14054687 -25.4296875 18.21484375 C-25.78923869 16.04127982 -25.78923869 16.04127982 -27 15 C-27.1875 12.0625 -27.1875 12.0625 -27 9 C-26.34 8.34 -25.68 7.68 -25 7 C-24.01 7 -23.02 7 -22 7 C-21.67 6.01 -21.34 5.02 -21 4 C-14.8221323 -1.02849696 -7.71597323 -1.28128493 0 0 Z " fill="#121743" transform="translate(113,43)"/>
<path d="M0 0 C0.66 0 1.32 0 2 0 C3.75908459 11.78373384 4.73942025 23.55666455 5.5625 35.4375 C5.68904827 37.20901334 5.81599985 38.98049792 5.94335938 40.75195312 C6.68708475 51.16446999 7.36884952 61.5800629 8 72 C2.46640524 71.11947621 -1.46569283 68.6365956 -6.1875 65.75 C-7.41629883 65.03263672 -7.41629883 65.03263672 -8.66992188 64.30078125 C-14.59135905 60.70405645 -14.59135905 60.70405645 -16.55078125 57.328125 C-17 55 -17 55 -17 52 C-16.34 52 -15.68 52 -15 52 C-15.08564209 51.25540527 -15.17128418 50.51081055 -15.25952148 49.74365234 C-15.65523465 46.28777518 -16.04701612 42.83147197 -16.4375 39.375 C-16.57728271 38.14144775 -16.71706543 36.90789551 -16.86108398 35.63696289 C-17.68988174 28.19348563 -18.38305234 20.79318406 -18.69140625 13.30859375 C-18.78796762 10.80724174 -18.78796762 10.80724174 -21 9 C-21 7.02 -21 5.04 -21 3 C-15.06 2.67 -9.12 2.34 -3 2 C-2.67 2.66 -2.34 3.32 -2 4 C-1.34 2.68 -0.68 1.36 0 0 Z " fill="#FAF4DC" transform="translate(35,61)"/>
<path d="M0 0 C0.33 0 0.66 0 1 0 C1.33 3.96 1.66 7.92 2 12 C2.95519531 11.7834375 3.91039062 11.566875 4.89453125 11.34375 C12.69898699 9.64035238 19.96347967 8.54888555 28 9 C30.83274453 29.82368586 32.54758988 50.97863287 32 72 C31.67 72 31.34 72 31 72 C29.55945265 59.55612289 28.52115117 47.11056183 27.69775391 34.61035156 C27.26085405 27.76048391 27.26085405 27.76048391 26.4453125 20.94921875 C25.88448104 17.2349402 25.93421525 13.74973099 26 10 C25.01 10.66 24.02 11.32 23 12 C22.63539547 14.66653905 22.63539547 14.66653905 22.8125 17.625 C22.83957031 18.62789062 22.86664063 19.63078125 22.89453125 20.6640625 C22.94673828 21.82035156 22.94673828 21.82035156 23 23 C22.67 23 22.34 23 22 23 C21.505 17.555 21.505 17.555 21 12 C19.35 12.33 17.7 12.66 16 13 C13.73004581 13.06652855 11.45831305 13.08543751 9.1875 13.0625 C8.02605469 13.05347656 6.86460938 13.04445313 5.66796875 13.03515625 C4.78753906 13.02355469 3.90710937 13.01195313 3 13 C3.8604139 17.33229715 3.8604139 17.33229715 6 21 C6.30127247 23.16942658 6.54042271 25.34752689 6.75390625 27.52734375 C6.85166603 28.52176231 6.85166603 28.52176231 6.95140076 29.53627014 C7.08887603 30.94754994 7.22406517 32.35905398 7.35717773 33.77075195 C7.55875946 35.89802642 7.77002312 38.02417248 7.98242188 40.15039062 C8.69374094 47.45324488 9.16514819 54.65449589 9 62 C8.34 62 7.68 62 7 62 C7.71833586 66.09420855 7.71833586 66.09420855 9 70 C11.34754398 71.33903214 11.34754398 71.33903214 14 72 C16.3125 74.125 16.3125 74.125 18 76 C15.69 76 13.38 76 11 76 C11.33 77.65 11.66 79.3 12 81 C13.98 81.33 15.96 81.66 18 82 C18 82.33 18 82.66 18 83 C16.35 83 14.7 83 13 83 C13 84.32 13 85.64 13 87 C11.35 86.67 9.7 86.34 8 86 C6 78.375 6 78.375 6 75 C4.02 74.34 2.04 73.68 0 73 C0 73.66 0 74.32 0 75 C0.66 75 1.32 75 2 75 C2.33 76.98 2.66 78.96 3 81 C0.04335481 82.4783226 -2.74229737 82.06032783 -6 82 C-6 82.99 -6 83.98 -6 85 C-4.68 85.33 -3.36 85.66 -2 86 C-2.99 86.495 -2.99 86.495 -4 87 C4.5592075 90.92881656 14.13494753 89.19665017 23 87 C22.01 86.01 21.02 85.02 20 84 C25.75 85.875 25.75 85.875 28 87 C27.505 88.98 27.505 88.98 27 91 C24.02141273 91.33937108 21.04230315 91.67162259 18.0625 92 C17.23169922 92.09539062 16.40089844 92.19078125 15.54492188 92.2890625 C11.38884112 92.74186507 7.23772251 93.10773179 3.05859375 93.25 C2.34888428 93.27578125 1.6391748 93.3015625 0.90795898 93.328125 C-1.56598978 92.90266279 -2.2855214 91.77314897 -4 90 C-7.61023099 89.26958147 -7.61023099 89.26958147 -11 89 C-11 87.02 -11 85.04 -11 83 C-10.34 83 -9.68 83 -9 83 C-8.9071875 81.6078125 -8.9071875 81.6078125 -8.8125 80.1875 C-8.18762106 75.6081633 -6.1826327 71.76010938 -4.15625 67.6484375 C-3.03414861 65.07821876 -2.43854515 62.76084106 -2 60 C-3.65 59.34 -5.3 58.68 -7 58 C-4.50907189 56.75453595 -3.58919267 57.2232422 -1 58 C3.93441681 46.28076007 2.16372983 34.48931915 0.4453125 22.23046875 C-0.44989397 14.86344609 -0.15427234 7.40507224 0 0 Z " fill="#17183F" transform="translate(11,51)"/>
<path d="M0 0 C0.99 0 1.98 0 3 0 C4.13320033 4.45374085 4.03478189 8.7572754 3.9375 13.3125 C3.863627 19.36823938 4.13107779 25.19416478 5 31.1875 C6.49098033 41.9568831 7.71028474 52.88161056 3 63 C1.515 63.495 1.515 63.495 0 64 C0.33 64.33 0.66 64.66 1 65 C0.74860865 70.78200096 -1.302229 75.19463908 -3.84375 80.3515625 C-4.96585139 82.92178124 -5.56145485 85.23915894 -6 88 C-6.66 88 -7.32 88 -8 88 C-8.16242288 77.82081534 -8.28668647 67.64194053 -8.3626852 57.46172237 C-8.39916748 52.73418744 -8.44862438 48.00754111 -8.52807617 43.28051758 C-8.60431754 38.7157631 -8.64602794 34.15186144 -8.6641407 29.58651924 C-8.67704259 27.84773906 -8.70223848 26.10900388 -8.7401104 24.3705883 C-9.02606958 10.69645871 -9.02606958 10.69645871 -6.4302063 6.40457153 C-4.70732278 4.68895373 -3.00068418 3.36504272 -1 2 C-0.67 1.34 -0.34 0.68 0 0 Z " fill="#F9F3DB" transform="translate(8,46)"/>
<path d="M0 0 C0.02476851 4.19921466 0.04289246 8.39839029 0.05493164 12.59765625 C0.05995206 14.02539816 0.06676972 15.45313496 0.07543945 16.88085938 C0.08760553 18.93621079 0.09325128 20.99149407 0.09765625 23.046875 C0.10289307 24.28276367 0.10812988 25.51865234 0.11352539 26.79199219 C0.02071737 29.4145671 -0.21643327 31.51644594 -1 34 C-2.65 33.67 -4.3 33.34 -6 33 C-5.505 35.475 -5.505 35.475 -5 38 C-13.91482931 45.74235743 -13.91482931 45.74235743 -21 46 C-26.24285385 46.54451513 -26.24285385 46.54451513 -31.375 47.6875 C-32.179375 47.8421875 -32.179375 47.8421875 -33 48 C-33.66 47.34 -34.32 46.68 -35 46 C-35.9590625 45.9071875 -35.9590625 45.9071875 -36.9375 45.8125 C-39 45 -39 45 -40.6875 41.5625 C-41.120625 40.386875 -41.55375 39.21125 -42 38 C-42.33 37.34 -42.66 36.68 -43 36 C-36.88040855 34.14088361 -31.4182745 32.58141688 -25 33 C-24.67 33 -24.34 33 -24 33 C-23.93683594 32.30777344 -23.87367187 31.61554688 -23.80859375 30.90234375 C-22.7465829 27.09039176 -20.54938683 24.54467144 -18.0625 21.5625 C-14.67977391 17.50035792 -12.39407131 14.21652491 -11 9 C-9.55798257 4.67394771 -4.7543673 0 0 0 Z " fill="#64D7ED" transform="translate(111,84)"/>
<path d="M0 0 C0.7734375 -0.00257812 1.546875 -0.00515625 2.34375 -0.0078125 C4.5 0.125 4.5 0.125 7.5 1.125 C7.5 1.785 7.5 2.445 7.5 3.125 C8.16 3.455 8.82 3.785 9.5 4.125 C8.2625 4.24875 7.025 4.3725 5.75 4.5 C2.6237803 4.88246305 0.21120763 5.43049523 -2.5 7.125 C-2.5 7.785 -2.5 8.445 -2.5 9.125 C-3.16 9.125 -3.82 9.125 -4.5 9.125 C-4.5 10.775 -4.5 12.425 -4.5 14.125 C-3.4275 14.5375 -2.355 14.95 -1.25 15.375 C2.0610668 16.77404231 3.99706039 18.53575213 6.5 21.125 C8.6381966 21.9122678 8.6381966 21.9122678 10.5 22.125 C10.17 22.785 9.84 23.445 9.5 24.125 C10.49 23.795 11.48 23.465 12.5 23.125 C12.83 22.465 13.16 21.805 13.5 21.125 C14.2425 21.29 14.985 21.455 15.75 21.625 C18.69006578 22.24425696 18.69006578 22.24425696 22.5 22.125 C22.6546875 23.2696875 22.6546875 23.2696875 22.8125 24.4375 C23.54364039 27.29559424 24.26951913 28.28242885 26.5 30.125 C28.65811388 29.17770463 28.65811388 29.17770463 30.5 27.125 C30.995 28.115 30.995 28.115 31.5 29.125 C31.17 29.785 30.84 30.445 30.5 31.125 C31.386875 30.609375 32.27375 30.09375 33.1875 29.5625 C36.82955561 27.9819853 37.85900298 27.75962612 41.5 29.125 C44.8125 31.0625 44.8125 31.0625 47.5 33.125 C47.5 33.785 47.5 34.445 47.5 35.125 C42.9351117 37.40744415 36.32738307 36.52017016 31.26220703 36.58496094 C29.6811682 36.61147867 28.10029936 36.65230647 26.52001953 36.70800781 C11.71008 37.2235142 11.71008 37.2235142 6.76953125 32.92578125 C5.64821958 31.68661872 4.5552977 30.4208435 3.5 29.125 C2.51094098 28.17569114 1.50798664 27.24052981 0.48828125 26.32421875 C-1.30622595 24.63973972 -3.09786408 22.95219935 -4.88671875 21.26171875 C-7.4226288 19.18826166 -9.41949604 18.15011754 -12.5 17.125 C-13.386875 16.75375 -14.27375 16.3825 -15.1875 16 C-19.66001911 14.81857986 -23.90205194 14.96143663 -28.5 15.125 C-28.5 13.475 -28.5 11.825 -28.5 10.125 C-21.75158562 8.55840381 -21.75158562 8.55840381 -18.1875 10.171875 C-16.22543379 11.41918852 -14.34299357 12.70844377 -12.5 14.125 C-12.17 12.475 -11.84 10.825 -11.5 9.125 C-11.17 9.125 -10.84 9.125 -10.5 9.125 C-10.5 11.435 -10.5 13.745 -10.5 16.125 C-9.51 16.125 -8.52 16.125 -7.5 16.125 C-7.62568359 15.12919922 -7.62568359 15.12919922 -7.75390625 14.11328125 C-8.76537786 5.34292619 -8.76537786 5.34292619 -7.5 1.125 C-4.68772378 0.18757459 -2.91253156 -0.00970844 0 0 Z " fill="#A9BDBF" transform="translate(50.5,116.875)"/>
<path d="M0 0 C3.18594946 1.63619498 3.42501042 2.54713823 5 6 C5.35254365 9.05372319 5.30551252 11.94487479 5 15 C4.26265625 14.91621094 3.5253125 14.83242188 2.765625 14.74609375 C-1.78832681 15.16418255 -3.51082259 18.18437946 -6.328125 21.53125 C-8.58133997 24.85842725 -9 27.02787229 -9 31 C-9.66 30.67 -10.32 30.34 -11 30 C-10.67 28.35 -10.34 26.7 -10 25 C-14.35535069 26.16142685 -16.64619703 27.07699505 -19 31 C-20.32 30.01 -21.64 29.02 -23 28 C-23.33 28.66 -23.66 29.32 -24 30 C-24 29.01 -24 28.02 -24 27 C-24.28386148 25.12045114 -24.59941788 23.24555653 -24.9375 21.375 C-25.11152344 20.39273438 -25.28554687 19.41046875 -25.46484375 18.3984375 C-25.76172005 16.05956395 -25.76172005 16.05956395 -27 15 C-27.1875 12.0625 -27.1875 12.0625 -27 9 C-26.34 8.34 -25.68 7.68 -25 7 C-24.01 7 -23.02 7 -22 7 C-21.67 6.01 -21.34 5.02 -21 4 C-14.79217658 -1.05287953 -7.74877316 -1.21901431 0 0 Z " fill="#100739" transform="translate(113,43)"/>
<path d="M0 0 C1.98 0 3.96 0 6 0 C6 19.14 6 38.28 6 58 C-0.27844671 56.74431066 -6.21303683 55.46410011 -12.2890625 53.6171875 C-13.82391152 53.16692015 -15.35907862 52.71773592 -16.89453125 52.26953125 C-19.25350945 51.57749278 -21.60990662 50.87960214 -23.96142578 50.16259766 C-34.93470919 46.83072236 -44.49703314 45.30923159 -56 46 C-56 45.67 -56 45.34 -56 45 C-54.02 45 -52.04 45 -50 45 C-50 42.03 -50 39.06 -50 36 C-49.67 36 -49.34 36 -49 36 C-49 38.64 -49 41.28 -49 44 C-48.09378906 43.76023438 -47.18757813 43.52046875 -46.25390625 43.2734375 C-40.52816426 42.45403681 -35.30653267 44.86662876 -29.9375 46.625 C-21.00268643 49.3516351 -14.50491684 50.85720976 -5.37890625 48.29296875 C-2.56762205 46.76499655 -2.17147336 45.91293952 -1 43 C0.68322814 33.96724102 0.11671487 24.47072071 0.0625 15.3125 C0.05747144 13.82096506 0.05291095 12.32942846 0.04882812 10.83789062 C0.03793804 7.22522538 0.02074936 3.61262368 0 0 Z " fill="#100E3D" transform="translate(163,102)"/>
<path d="M0 0 C0.33 1.32 0.66 2.64 1 4 C1.763125 4.144375 2.52625 4.28875 3.3125 4.4375 C6 5 6 5 9 6 C9.94875 5.67 10.8975 5.34 11.875 5 C15.17235724 3.94484568 16.73686225 4.0402536 20 5 C20 5.66 20 6.32 20 7 C23.77893406 8.1021891 27.53651414 9.12698697 31.375 10 C32.57125 10.33 33.7675 10.66 35 11 C36.20272819 13.40545638 36.10071472 14.94996953 36.0625 17.625 C36.05347656 18.44226563 36.04445312 19.25953125 36.03515625 20.1015625 C36.02355469 20.72804687 36.01195312 21.35453125 36 22 C34.3745692 21.85904936 32.74965949 21.71207913 31.125 21.5625 C30.22007813 21.48128906 29.31515625 21.40007812 28.3828125 21.31640625 C26 21 26 21 24 20 C19.09661336 19.55423758 16.27476078 20.6683123 12 23 C11.34 23 10.68 23 10 23 C10 22.01 10 21.02 10 20 C8.68 19.34 7.36 18.68 6 18 C7.32 16.35 8.64 14.7 10 13 C9.01 13.99 8.02 14.98 7 16 C6.01 15.67 5.02 15.34 4 15 C4.33 14.34 4.66 13.68 5 13 C3.906875 12.38125 2.81375 11.7625 1.6875 11.125 C-0.6162256 9.82100438 -2.79162049 8.47225301 -5 7 C-5 6.34 -5 5.68 -5 5 C-3.68 4.67 -2.36 4.34 -1 4 C-0.67 2.68 -0.34 1.36 0 0 Z " fill="#B47959" transform="translate(71,125)"/>
<path d="M0 0 C1.32 0.33 2.64 0.66 4 1 C3.01 1.33 2.02 1.66 1 2 C1 2.99 1 3.98 1 5 C1.66 4.01 2.32 3.02 3 2 C3.79953138 5.28696233 4.09658936 6.71023192 3 10 C2.34 10 1.68 10 1 10 C1.12375 11.27875 1.2475 12.5575 1.375 13.875 C1.38449394 19.87517096 -1.2159426 24.45256443 -5 29 C-7.70703125 30.7890625 -7.70703125 30.7890625 -10 32 C-10 31.34 -10 30.68 -10 30 C-10.99 29.67 -11.98 29.34 -13 29 C-13.33 28.01 -13.66 27.02 -14 26 C-14.66 25.67 -15.32 25.34 -16 25 C-16 24.34 -16 23.68 -16 23 C-16.99 22.67 -17.98 22.34 -19 22 C-19 21.01 -19 20.02 -19 19 C-20.32 18.67 -21.64 18.34 -23 18 C-23 16.68 -23 15.36 -23 14 C-21.02 14.99 -21.02 14.99 -19 16 C-18.443125 15.0409375 -18.443125 15.0409375 -17.875 14.0625 C-15.41947207 11.36141928 -13.55421195 11.31592995 -10 11 C-10.020625 11.804375 -10.04125 12.60875 -10.0625 13.4375 C-10.29633621 15.93354885 -10.29633621 15.93354885 -9 17 C-9.185625 16.05125 -9.37125 15.1025 -9.5625 14.125 C-9.6425195 9.79505598 -7.31374037 7.65805474 -4.5 4.5625 C-3.01611144 3.02594256 -1.520978 1.49985331 0 0 Z " fill="#BB7C59" transform="translate(113,57)"/>
<path d="M0 0 C0.33 0 0.66 0 1 0 C1.144375 1.2375 1.28875 2.475 1.4375 3.75 C1.78688502 6.56504499 2.20379366 9.2701497 3 12 C2.34 12 1.68 12 1 12 C0.67 12.66 0.34 13.32 0 14 C0.66 14 1.32 14 2 14 C2.33 17.63 2.66 21.26 3 25 C1.35 24.67 -0.3 24.34 -2 24 C-2 24.66 -2 25.32 -2 26 C-1.34 26 -0.68 26 0 26 C0.33 27.98 0.66 29.96 1 32 C-1.95664519 33.4783226 -4.74229737 33.06032783 -8 33 C-8 33.99 -8 34.98 -8 36 C-6.68 36.33 -5.36 36.66 -4 37 C-4.99 37.495 -4.99 37.495 -6 38 C2.5592075 41.92881656 12.13494753 40.19665017 21 38 C20.01 37.01 19.02 36.02 18 35 C23.75 36.875 23.75 36.875 26 38 C25.67 39.32 25.34 40.64 25 42 C22.02141273 42.33937108 19.04230315 42.67162259 16.0625 43 C15.23169922 43.09539062 14.40089844 43.19078125 13.54492188 43.2890625 C9.38884112 43.74186507 5.23772251 44.10773179 1.05859375 44.25 C0.34888428 44.27578125 -0.3608252 44.3015625 -1.09204102 44.328125 C-3.56598978 43.90266279 -4.2855214 42.77314897 -6 41 C-9.61023099 40.26958147 -9.61023099 40.26958147 -13 40 C-13 38.02 -13 36.04 -13 34 C-12.34 34 -11.68 34 -11 34 C-10.938125 33.071875 -10.87625 32.14375 -10.8125 31.1875 C-10.18762106 26.6081633 -8.1826327 22.76010938 -6.15625 18.6484375 C-5.03414861 16.07821876 -4.43854515 13.76084106 -4 11 C-6.475 10.01 -6.475 10.01 -9 9 C-7 8 -7 8 -3 9 C-2.01 6.03 -1.02 3.06 0 0 Z " fill="#2A6A79" transform="translate(13,100)"/>
<path d="M0 0 C0.02476851 4.19921466 0.04289246 8.39839029 0.05493164 12.59765625 C0.05995206 14.02539816 0.06676972 15.45313496 0.07543945 16.88085938 C0.08760553 18.93621079 0.09325128 20.99149407 0.09765625 23.046875 C0.10289307 24.28276367 0.10812988 25.51865234 0.11352539 26.79199219 C0.02071737 29.4145671 -0.21643327 31.51644594 -1 34 C-2.98 33.67 -4.96 33.34 -7 33 C-9.63377863 25.36369844 -12.85273025 15.17576751 -10.4375 7.125 C-8.19288708 3.80687656 -4.18150738 0 0 0 Z " fill="#65D6ED" transform="translate(111,84)"/>
<path d="M0 0 C2.72049341 1.38691821 3.95951599 2.66801827 6 5 C4.23628909 8.83866493 2.3837433 10.98123372 -1.62890625 12.5 C-6.97288793 13.62690223 -12.58335012 13.52397241 -18 13 C-18.99 12.34 -19.98 11.68 -21 11 C-20.73212125 7.07111171 -20.47562903 5.45123779 -17.5625 2.6875 C-12.03796113 -0.95061097 -6.49394812 -0.73991651 0 0 Z " fill="#1F264A" transform="translate(128,152)"/>
<path d="M0 0 C0.33 0 0.66 0 1 0 C1.33 3.96 1.66 7.92 2 12 C2.95519531 11.7834375 3.91039062 11.566875 4.89453125 11.34375 C12.69898699 9.64035238 19.96347967 8.54888555 28 9 C30.83274453 29.82368586 32.54758988 50.97863287 32 72 C31.67 72 31.34 72 31 72 C29.55945265 59.55612289 28.52115117 47.11056183 27.69775391 34.61035156 C27.26085405 27.76048391 27.26085405 27.76048391 26.4453125 20.94921875 C25.88448104 17.2349402 25.93421525 13.74973099 26 10 C25.01 10.66 24.02 11.32 23 12 C22.63539547 14.66653905 22.63539547 14.66653905 22.8125 17.625 C22.83957031 18.62789062 22.86664063 19.63078125 22.89453125 20.6640625 C22.94673828 21.82035156 22.94673828 21.82035156 23 23 C22.67 23 22.34 23 22 23 C21.67 19.37 21.34 15.74 21 12 C19.35 12.33 17.7 12.66 16 13 C13.73004581 13.06652855 11.45831305 13.08543751 9.1875 13.0625 C8.02605469 13.05347656 6.86460938 13.04445313 5.66796875 13.03515625 C4.78753906 13.02355469 3.90710938 13.01195313 3 13 C3.09087891 13.83809204 3.09087891 13.83809204 3.18359375 14.69311523 C3.46062962 17.27407726 3.73034719 19.85575657 4 22.4375 C4.09539063 23.31599609 4.19078125 24.19449219 4.2890625 25.09960938 C5.91661328 40.85197582 5.91661328 40.85197582 3 46 C1.14769204 30.63306923 -0.55327131 15.4915966 0 0 Z " fill="#4C4D61" transform="translate(11,51)"/>
<path d="M0 0 C0.57105469 0.33773437 1.14210938 0.67546875 1.73046875 1.0234375 C6.72002164 3.76808821 10.94779068 5.32429947 16.625 6 C24.08660678 6.92390178 28.8410975 9.63786801 34 15 C33.67 15.66 33.34 16.32 33 17 C31.7625 16.9175 30.525 16.835 29.25 16.75 C26.00519727 16.73853427 25.27394839 16.78372495 22.625 18.875 C22.08875 19.57625 21.5525 20.2775 21 21 C20.34 21.66 19.68 22.32 19 23 C19 21.35 19 19.7 19 18 C18.175 17.7525 17.35 17.505 16.5 17.25 C12.47626529 15.81295189 8.78020976 13.97645485 5 12 C5.33 11.01 5.66 10.02 6 9 C7.65 9 9.3 9 11 9 C10.01 8.67 9.02 8.34 8 8 C6.97980427 7.0206121 5.97850195 6.02104551 5 5 C4.34 4.67 3.68 4.34 3 4 C3 4.99 3 5.98 3 7 C4.32 7.33 5.64 7.66 7 8 C5.35 8 3.7 8 2 8 C1.34 5.36 0.68 2.72 0 0 Z " fill="#1E1F43" transform="translate(124,69)"/>
<path d="M0 0 C0.7734375 -0.00257812 1.546875 -0.00515625 2.34375 -0.0078125 C4.5 0.125 4.5 0.125 7.5 1.125 C7.5 1.785 7.5 2.445 7.5 3.125 C8.16 3.455 8.82 3.785 9.5 4.125 C8.2625 4.24875 7.025 4.3725 5.75 4.5 C2.6237803 4.88246305 0.21120763 5.43049523 -2.5 7.125 C-2.5 7.785 -2.5 8.445 -2.5 9.125 C-3.16 9.125 -3.82 9.125 -4.5 9.125 C-4.82494469 13.78254061 -4.40547505 16.41801459 -1.5 20.125 C0.14821244 21.15513277 1.81503702 22.15614628 3.5 23.125 C5.3125 25.3125 5.3125 25.3125 6.5 27.125 C5.84 27.125 5.18 27.125 4.5 27.125 C4.17 27.785 3.84 28.445 3.5 29.125 C2.76394531 28.42632812 2.02789062 27.72765625 1.26953125 27.0078125 C0.28420049 26.08817046 -0.70149606 25.16892024 -1.6875 24.25 C-2.17025391 23.78980469 -2.65300781 23.32960937 -3.15039062 22.85546875 C-6.10894719 20.11532912 -8.66888738 18.37173495 -12.5 17.125 C-13.386875 16.75375 -14.27375 16.3825 -15.1875 16 C-19.66001911 14.81857986 -23.90205194 14.96143663 -28.5 15.125 C-28.5 13.475 -28.5 11.825 -28.5 10.125 C-21.75158562 8.55840381 -21.75158562 8.55840381 -18.1875 10.171875 C-16.22543379 11.41918852 -14.34299357 12.70844377 -12.5 14.125 C-12.17 12.475 -11.84 10.825 -11.5 9.125 C-11.17 9.125 -10.84 9.125 -10.5 9.125 C-10.5 11.435 -10.5 13.745 -10.5 16.125 C-9.51 16.125 -8.52 16.125 -7.5 16.125 C-7.62568359 15.12919922 -7.62568359 15.12919922 -7.75390625 14.11328125 C-8.76537786 5.34292619 -8.76537786 5.34292619 -7.5 1.125 C-4.68772378 0.18757459 -2.91253156 -0.00970844 0 0 Z " fill="#6D787F" transform="translate(50.5,116.875)"/>
<path d="M0 0 C0.66 0 1.32 0 2 0 C3.56287271 9.7762676 4.41836178 19.5650843 5.125 29.4375 C5.21249512 30.64567383 5.29999023 31.85384766 5.39013672 33.09863281 C5.80228584 39.08101466 6.10402699 45.00358682 6 51 C5.34 51 4.68 51 4 51 C4 54.96 4 58.92 4 63 C3.67 63 3.34 63 3 63 C2.27504233 57.04647795 1.56364078 51.09153306 0.86376953 45.13500977 C0.62480982 43.11668225 0.38240327 41.09875927 0.13623047 39.08129883 C-1.07634972 29.12576803 -2.22209359 19.22329163 -2.28125 9.18359375 C-2.28854126 8.47840103 -2.29583252 7.77320831 -2.30334473 7.04664612 C-2.25366916 2.25366916 -2.25366916 2.25366916 0 0 Z " fill="#E0E2D3" transform="translate(35,61)"/>
<path d="M0 0 C0.66 0.33 1.32 0.66 2 1 C2 3.31 2 5.62 2 8 C0.35 8 -1.3 8 -3 8 C-3 8.66 -3 9.32 -3 10 C-2.278125 10.268125 -1.55625 10.53625 -0.8125 10.8125 C2 12 2 12 4.6875 13.6875 C5.450625 14.120625 6.21375 14.55375 7 15 C7.66 14.67 8.32 14.34 9 14 C8.34 15.32 7.68 16.64 7 18 C7.598125 17.67 8.19625 17.34 8.8125 17 C11 16 11 16 14 16 C12.35 17.65 10.7 19.3 9 21 C9.66 21.33 10.32 21.66 11 22 C11 23.32 11 24.64 11 26 C9.35 26 7.7 26 6 26 C6.33 25.34 6.66 24.68 7 24 C6.34 23.401875 5.68 22.80375 5 22.1875 C3 20 3 20 3 17 C1.8553125 17.2475 1.8553125 17.2475 0.6875 17.5 C-2 18 -2 18 -5 18 C-7.15028304 18.94978897 -7.15028304 18.94978897 -9 20 C-9 19.01 -9 18.02 -9 17 C-9.7425 16.896875 -10.485 16.79375 -11.25 16.6875 C-14.17014018 15.95746496 -15.73187554 14.93210602 -18 13 C-17.67 12.67 -17.34 12.34 -17 12 C-17.66 11.34 -18.32 10.68 -19 10 C-17.68 8.68 -16.36 7.36 -15 6 C-14.67 6.99 -14.34 7.98 -14 9 C-12.28619384 10.03557297 -12.28619384 10.03557297 -10 10 C-6.95009373 8.72512465 -6.95009373 8.72512465 -4 7 C-2.66666667 6.33333333 -1.33333333 5.66666667 0 5 C0 3.35 0 1.7 0 0 Z " fill="#3B5F67" transform="translate(69,122)"/>
<path d="M0 0 C0.33 0 0.66 0 1 0 C1.06469482 1.25659424 1.12938965 2.51318848 1.19604492 3.80786133 C1.44223649 8.46664801 1.71987138 13.12311784 2.00708008 17.77954102 C2.12701117 19.79564923 2.23839138 21.81228496 2.34106445 23.8293457 C2.49009149 26.72788597 2.66971872 29.62314153 2.85546875 32.51953125 C2.89528366 33.42274612 2.93509857 34.325961 2.97612 35.25654602 C3.14362467 37.61581393 3.32706639 39.73230741 4 42 C6.38907631 44.17182712 6.38907631 44.17182712 9 45 C8.6140601 50.78909846 6.71294717 55.16384557 4.15625 60.3515625 C3.03414861 62.92178124 2.43854515 65.23915894 2 68 C1.34 68 0.68 68 0 68 C0 45.56 0 23.12 0 0 Z " fill="#FAFBFC" transform="translate(0,66)"/>
<path d="M0 0 C2.8125 0.3125 2.8125 0.3125 6 2 C7.4751853 5.57178566 8.27771105 9.21115095 9 13 C10.32 13.33 11.64 13.66 13 14 C12.67 11.69 12.34 9.38 12 7 C14.97 7 17.94 7 21 7 C20.01 7.495 20.01 7.495 19 8 C20.40715316 11.40062014 22.02868228 12.89229698 25 15 C3.61785095 19.24610052 3.61785095 19.24610052 -6 14 C-6 12.35 -6 10.7 -6 9 C-1.545 8.505 -1.545 8.505 3 8 C2.67 6.02 2.34 4.04 2 2 C1.34 2 0.68 2 0 2 C0 1.34 0 0.68 0 0 Z " fill="#BFC7C8" transform="translate(11,124)"/>
<path d="M0 0 C4.84230868 7.41478517 4.39922611 14.4831764 4 23 C2.02 23 0.04 23 -2 23 C-2.33 19.37 -2.66 15.74 -3 12 C-3.886875 12.103125 -4.77375 12.20625 -5.6875 12.3125 C-10.00684858 11.90501428 -11.25642975 10.2277297 -14 7 C-12.23462904 5.82508418 -10.46250287 4.66031316 -8.6875 3.5 C-7.70136719 2.8503125 -6.71523437 2.200625 -5.69921875 1.53125 C-3 0 -3 0 0 0 Z " fill="#2A99AE" transform="translate(109,124)"/>
<path d="M0 0 C0.625 1.75 0.625 1.75 1 4 C0.67 4.598125 0.34 5.19625 0 5.8125 C-2.54970097 11.38997088 1.1601956 20.12079391 2.5625 25.8125 C3.02416841 27.69351261 3.48390353 29.57500112 3.94140625 31.45703125 C4.14451416 32.28178955 4.34762207 33.10654785 4.55688477 33.95629883 C5 36 5 36 5 38 C7.64 37.01 10.28 36.02 13 35 C13 38.20395416 12.25664978 40.09399739 11 43 C9.7625 42.67 8.525 42.34 7.25 42 C1.50227454 40.69828227 -4.1373892 40.82144333 -10 41 C-9.2575 40.278125 -8.515 39.55625 -7.75 38.8125 C-6.8425 37.884375 -5.935 36.95625 -5 36 C-4.236875 35.2575 -3.47375 34.515 -2.6875 33.75 C-0.27079957 29.81167338 -0.3438646 26.50803614 -1 22 C-2.11696211 18.30050767 -3.85432034 15.2185195 -6 12 C-6.125 9.3125 -6.125 9.3125 -6 7 C-5.67 8.32 -5.34 9.64 -5 11 C-4.34 11 -3.68 11 -3 11 C-2.814375 9.39125 -2.814375 9.39125 -2.625 7.75 C-2.10356064 4.62136385 -1.59911746 2.66519576 0 0 Z " fill="#0E103E" transform="translate(142,92)"/>
<path d="M0 0 C3.25 0.8125 3.25 0.8125 4.25 1.8125 C5.00681712 8.33277055 3.64432752 13.78392536 1.25 19.8125 C0.26 19.8125 -0.73 19.8125 -1.75 19.8125 C-5.88495694 15.19901688 -7.58014183 9.76814161 -8.75 3.8125 C-5.64494584 0.70744584 -4.49177058 -0.22458853 0 0 Z " fill="#3E727E" transform="translate(154.75,92.1875)"/>
<path d="M0 0 C4.72346645 1.81671787 7.45757357 3.33542094 11 7 C13.1381966 7.7872678 13.1381966 7.7872678 15 8 C14.67 8.66 14.34 9.32 14 10 C14.99 9.67 15.98 9.34 17 9 C17.33 8.34 17.66 7.68 18 7 C19.11375 7.2475 19.11375 7.2475 20.25 7.5 C23.19006578 8.11925696 23.19006578 8.11925696 27 8 C27.103125 8.763125 27.20625 9.52625 27.3125 10.3125 C28.04364039 13.17059424 28.76951913 14.15742885 31 16 C26.53820322 17.18047538 22.5642506 18.13928252 18 17 C15.21153399 14.92018174 12.86104757 12.67572134 10.45703125 10.1640625 C7.71855147 7.75211052 5.43640285 7.09318486 2 6 C0 3 0 3 0 0 Z " fill="#315661" transform="translate(46,131)"/>
<path d="M0 0 C0.33 0.66 0.66 1.32 1 2 C2.97888961 2.72693904 4.97954558 3.39816251 7 4 C5.7251791 6.84383123 4.54862922 9.13754018 2 11 C1.38125 10.814375 0.7625 10.62875 0.125 10.4375 C-0.57625 10.293125 -1.2775 10.14875 -2 10 C-4.75256794 11.85164036 -4.75256794 11.85164036 -7 14 C-8.9375 13.5 -8.9375 13.5 -11 12 C-11.68790422 9.30341548 -11.81946464 6.7982981 -12 4 C-10.56988027 3.13353333 -9.13059381 2.28218171 -7.6875 1.4375 C-6.48673828 0.72400391 -6.48673828 0.72400391 -5.26171875 -0.00390625 C-3 -1 -3 -1 0 0 Z " fill="#BD7C59" transform="translate(101,56)"/>
<path d="M0 0 C12.34385061 9.14359305 12.34385061 9.14359305 18 14 C18 14.33 18 14.66 18 15 C12.06 15 6.12 15 0 15 C0 10.05 0 5.1 0 0 Z " fill="#FBFBFB" transform="translate(0,154)"/>
<path d="M0 0 C2.64 0 5.28 0 8 0 C10.83274453 20.82368586 12.54758988 41.97863287 12 63 C11.67 63 11.34 63 11 63 C9.55945265 50.55612289 8.52115117 38.11056183 7.69775391 25.61035156 C7.26085405 18.76048391 7.26085405 18.76048391 6.4453125 11.94921875 C5.88448104 8.2349402 5.93421525 4.74973099 6 1 C5.01 1.33 4.02 1.66 3 2 C2.01 1.34 1.02 0.68 0 0 Z " fill="#393854" transform="translate(31,60)"/>
<path d="M0 0 C2 1 4 2 6 3 C6 3.66 6 4.32 6 5 C6.66 4.34 7.32 3.68 8 3 C10.58103306 2.82497005 13.05308163 2.76837721 15.6328125 2.8046875 C16.76056595 2.80893234 16.76056595 2.80893234 17.91110229 2.81326294 C20.31589578 2.82447126 22.72031881 2.84957648 25.125 2.875 C26.75390088 2.88502898 28.38280758 2.89415497 30.01171875 2.90234375 C34.00795556 2.92441265 38.00391494 2.95894649 42 3 C42.495 4.485 42.495 4.485 43 6 C38.43357388 8.28321306 31.77636135 7.35339441 26.70727539 7.4050293 C25.11948834 7.42655806 23.53181833 7.4606009 21.94458008 7.50756836 C7.05810481 7.94380775 7.05810481 7.94380775 2.41796875 4.03515625 C0 1 0 1 0 0 Z " fill="#687179" transform="translate(55,146)"/>
<path d="M0 0 C-1.37263317 2.74526635 -3.40592747 3.44355648 -6 5 C-6.33 5.66 -6.66 6.32 -7 7 C-6.34773438 6.71125 -5.69546875 6.4225 -5.0234375 6.125 C4.07313318 2.26096998 4.07313318 2.26096998 9 3 C9.66 3.66 10.32 4.32 11 5 C3.79031468 9.17304783 -2.76046642 9.72110696 -11 9 C-11.66 8.67 -12.32 8.34 -13 8 C-11.82191948 4.6470016 -10.80593388 2.2447471 -8 0 C-4.71023192 -1.09658936 -3.28696233 -0.79953138 0 0 Z " fill="#60D0E6" transform="translate(121,154)"/>
<path d="M0 0 C0.33 1.32 0.66 2.64 1 4 C1.763125 4.144375 2.52625 4.28875 3.3125 4.4375 C6 5 6 5 9 6 C9.94875 5.67 10.8975 5.34 11.875 5 C15.17235724 3.94484568 16.73686225 4.0402536 20 5 C20.33 5.99 20.66 6.98 21 8 C20.35933594 8.10957031 19.71867187 8.21914062 19.05859375 8.33203125 C12.9886998 9.43907114 12.9886998 9.43907114 7.4375 12 C4 13 4 13 1.5703125 11.92578125 C-0.79210405 10.40603353 -2.94915171 8.9206357 -5 7 C-5 6.34 -5 5.68 -5 5 C-3.68 4.67 -2.36 4.34 -1 4 C-0.67 2.68 -0.34 1.36 0 0 Z " fill="#5D463C" transform="translate(71,125)"/>
<path d="M0 0 C2.79636762 2.79636762 2.29976679 4.59514984 2.3125 8.5 C2.24105734 14.7999433 1.26862352 20.13938923 -1 26 C-4.8359375 24.234375 -4.8359375 24.234375 -6.3125 22.125 C-7.91645793 17.16731185 -4.26067781 12.15240507 -2.15625 7.75390625 C-1.0615955 5.1467055 -0.44457293 2.78363277 0 0 Z " fill="#62D6EB" transform="translate(123,69)"/>
<path d="M0 0 C0.99 0 1.98 0 3 0 C3 1.32 3 2.64 3 4 C2.34 4 1.68 4 1 4 C0.690625 4.61875 0.38125 5.2375 0.0625 5.875 C-0.625 7.25 -1.3125 8.625 -2 10 C-2.66 10 -3.32 10 -4 10 C-6.44556953 13.74128615 -6.07954136 16.78755559 -5.7578125 21.15234375 C-5.71059052 21.84832169 -5.66336853 22.54429962 -5.61471558 23.2613678 C-5.4620754 25.48764231 -5.2944314 27.71244576 -5.125 29.9375 C-4.91314044 32.84203656 -4.70805736 35.74698411 -4.5078125 38.65234375 C-4.45860657 39.35757172 -4.40940063 40.06279968 -4.35870361 40.78939819 C-3.93649221 47.19516286 -3.88686598 53.58138999 -4 60 C-4.33 60 -4.66 60 -5 60 C-6.03582987 52.80518173 -6.48366279 45.57968738 -6.92993164 38.32885742 C-7.06156139 36.20266118 -7.19948361 34.07693638 -7.33789062 31.95117188 C-7.59202638 27.96874345 -7.8042426 23.98574487 -8 20 C-8.05905518 18.90453857 -8.11811035 17.80907715 -8.17895508 16.68041992 C-8.21013428 15.71080322 -8.24131348 14.74118652 -8.2734375 13.7421875 C-8.3048584 12.91444824 -8.3362793 12.08670898 -8.36865234 11.23388672 C-7.65324218 6.89878539 -4.22679491 4.65417423 -1 2 C-0.67 1.34 -0.34 0.68 0 0 Z " fill="#82807E" transform="translate(8,46)"/>
<path d="M0 0 C5.75 1.875 5.75 1.875 8 3 C7.67 4.32 7.34 5.64 7 7 C4.02141273 7.33937108 1.04230315 7.67162259 -1.9375 8 C-2.76830078 8.09539062 -3.59910156 8.19078125 -4.45507812 8.2890625 C-8.61115888 8.74186507 -12.76227749 9.10773179 -16.94140625 9.25 C-18.00597046 9.28867188 -18.00597046 9.28867188 -19.09204102 9.328125 C-21.56598978 8.90266279 -22.2855214 7.77314897 -24 6 C-27.61023099 5.26958147 -27.61023099 5.26958147 -31 5 C-31 4.67 -31 4.34 -31 4 C-24.62158104 2.74932961 -24.62158104 2.74932961 -21.6171875 3.9609375 C-14.01116626 6.98064145 -4.70117628 4.90825607 3 3 C2.01 2.01 1.02 1.02 0 0 Z " fill="#375E6A" transform="translate(31,135)"/>
<path d="M0 0 C0.94875 0.04125 1.8975 0.0825 2.875 0.125 C4.49499217 3.36498435 2.95343821 6.03744395 1.91015625 9.37109375 C0.33956005 13.54947232 -1.80206222 17.32382909 -4.125 21.125 C-4.785 20.465 -5.445 19.805 -6.125 19.125 C-5.81669075 17.12098989 -5.47536606 15.12208656 -5.125 13.125 C-5.12094669 10.25120356 -5.18706687 7.38768204 -5.28515625 4.515625 C-5.02444002 0.62395828 -3.76179597 0.15047184 0 0 Z " fill="#9A6E56" transform="translate(120.125,66.875)"/>
<path d="M0 0 C0.99 0.33 1.98 0.66 3 1 C3 1.66 3 2.32 3 3 C3.99 3.33 4.98 3.66 6 4 C6.125 9.75 6.125 9.75 5 12 C7.31 12 9.62 12 12 12 C12.33 14.64 12.66 17.28 13 20 C11.02 20 9.04 20 7 20 C7 22.31 7 24.62 7 27 C6.67 27 6.34 27 6 27 C6 24.69 6 22.38 6 20 C4.68 20 3.36 20 2 20 C2.33 23.3 2.66 26.6 3 30 C0.87912036 25.75824072 0.74234523 23.6377859 1 19 C1.33 18.34 1.66 17.68 2 17 C2.66 17 3.32 17 4 17 C4 17.66 4 18.32 4 19 C6.64 19 9.28 19 12 19 C11.67 17.02 11.34 15.04 11 13 C6.35413108 13.48484276 6.35413108 13.48484276 2 15 C1.34 14.67 0.68 14.34 0 14 C0.33 13.34 0.66 12.68 1 12 C1.66 12 2.32 12 3 12 C3.33 10.35 3.66 8.7 4 7 C2.02 7 0.04 7 -2 7 C-1.125 1.125 -1.125 1.125 0 0 Z " fill="#264659" transform="translate(124,100)"/>
<path d="M0 0 C3 2 3 2 3.52416992 3.79321289 C3.59224854 4.5124292 3.66032715 5.23164551 3.73046875 5.97265625 C3.81119629 6.78250977 3.89192383 7.59236328 3.97509766 8.42675781 C4.04519043 9.29655273 4.1152832 10.16634766 4.1875 11.0625 C4.26790527 11.94905273 4.34831055 12.83560547 4.43115234 13.74902344 C5.13532093 22.17202086 5.19689647 30.55532898 5 39 C4.67 39 4.34 39 4 39 C3.67 37.35 3.34 35.7 3 34 C2.34 34.66 1.68 35.32 1 36 C0.80341192 34.58456585 0.61812454 33.16755969 0.4375 31.75 C0.33308594 30.96109375 0.22867187 30.1721875 0.12109375 29.359375 C-0.00180072 26.96491503 0.36915194 25.29315574 1 23 C1.24840764 15.29936306 0.61128622 7.67382517 0 0 Z " fill="#120F3A" transform="translate(14,70)"/>
<path d="M0 0 C-0.45822468 3.46941546 -0.89131683 6.67395049 -2 10 C-4.31 10.33 -6.62 10.66 -9 11 C-9 10.01 -9 9.02 -9 8 C-10.32 7.67 -11.64 7.34 -13 7 C-13 5.68 -13 4.36 -13 3 C-11.02 3.99 -11.02 3.99 -9 5 C-8.566875 4.360625 -8.13375 3.72125 -7.6875 3.0625 C-5.3384012 0.19137924 -3.64571495 0 0 0 Z " fill="#775D4B" transform="translate(103,68)"/>
<path d="M0 0 C1.2920342 3.87610261 0.38706598 4.86149255 -1.3125 8.5 C-3.84862497 14.27672911 -5.17757839 19.7643257 -6 26 C-4.68 26.33 -3.36 26.66 -2 27 C-3.32 27 -4.64 27 -6 27 C-6 27.66 -6 28.32 -6 29 C-7.65 29 -9.3 29 -11 29 C-11 27.35 -11 25.7 -11 24 C-10.34 24 -9.68 24 -9 24 C-8.938125 23.071875 -8.87625 22.14375 -8.8125 21.1875 C-8.18108343 16.62830092 -6.2302107 12.76623005 -4.25390625 8.6484375 C-3.41093324 6.86795245 -2.62729043 5.05827832 -1.90234375 3.2265625 C-1 1 -1 1 0 0 Z " fill="#399AAC" transform="translate(11,110)"/>
<path d="M0 0 C0.99 0 1.98 0 3 0 C2.34 1.32 1.68 2.64 1 4 C1.598125 3.67 2.19625 3.34 2.8125 3 C5 2 5 2 8 2 C6.35 3.65 4.7 5.3 3 7 C3.66 7.33 4.32 7.66 5 8 C5 9.32 5 10.64 5 12 C3.35 12 1.7 12 0 12 C0.33 11.34 0.66 10.68 1 10 C0.34 9.401875 -0.32 8.80375 -1 8.1875 C-3 6 -3 6 -3 3 C-3.70125 3.20625 -4.4025 3.4125 -5.125 3.625 C-8.60186072 4.07850357 -10.77398123 3.27540277 -14 2 C-8.92698447 -1.38201035 -5.98899006 -0.98001655 0 0 Z " fill="#3A2B2B" transform="translate(75,136)"/>
<path d="M0 0 C2.38564077 0.57584432 4.66682784 1.22227595 7 2 C7.33 1.67 7.66 1.34 8 1 C10.33297433 0.95907063 12.66705225 0.95758277 15 1 C15.33 2.98 15.66 4.96 16 7 C13.36 7 10.72 7 8 7 C8 6.34 8 5.68 8 5 C7.34 5 6.68 5 6 5 C6 5.66 6 6.32 6 7 C3.03 6.505 3.03 6.505 0 6 C0 4.02 0 2.04 0 0 Z " fill="#62D2E9" transform="translate(120,112)"/>
<path d="M0 0 C0.33 0 0.66 0 1 0 C1 2.64 1 5.28 1 8 C1.89847656 7.7628125 2.79695313 7.525625 3.72265625 7.28125 C10.53141438 6.30881484 17.35583134 9.52301842 23.75195312 11.55078125 C30.01669255 13.44415825 34.56843166 14.4379205 41 13 C40.67 13.99 40.34 14.98 40 16 C36.55271649 17.55950873 33.98263917 16.64685546 30.484375 15.56640625 C29.40462402 15.24679932 28.32487305 14.92719238 27.21240234 14.59790039 C26.06980957 14.25621826 24.9272168 13.91453613 23.75 13.5625 C13.5274634 10.63013043 4.6171453 8.98960702 -6 10 C-6 9.67 -6 9.34 -6 9 C-4.02 9 -2.04 9 0 9 C0 6.03 0 3.06 0 0 Z " fill="#33475A" transform="translate(113,138)"/>
<path d="M0 0 C0.99 0 1.98 0 3 0 C2.29592654 5.26797825 -1.72357366 8.86285196 -4.96875 12.83203125 C-7.22038878 16.34372173 -7.71031691 18.87718884 -8 23 C-8.66 22.67 -9.32 22.34 -10 22 C-15.62709967 21.5210979 -20.1805061 22.75504731 -25.546875 24.44140625 C-28 25 -28 25 -31 24 C-29.96875 23.71125 -28.9375 23.4225 -27.875 23.125 C-25.54297441 22.4647277 -23.28824373 21.74791965 -21 20.9375 C-18 20 -18 20 -14.578125 19.86328125 C-10.76408526 19.33573845 -10.76408526 19.33573845 -8.671875 16.015625 C-8.00596327 14.77364677 -7.36581977 13.51756237 -6.75 12.25 C-6.09914502 11.00511071 -5.44810646 9.76031738 -4.796875 8.515625 C-3.90742187 6.77539062 -3.90742187 6.77539062 -3 5 C-1.453125 2.046875 -1.453125 2.046875 0 0 Z " fill="#556A7C" transform="translate(96,96)"/>
<path d="M0 0 C0.33 0 0.66 0 1 0 C1.66 4.95 2.32 9.9 3 15 C3.66 14.34 4.32 13.68 5 13 C6.10228696 17.40914783 6.07654536 21.48382401 6 26 C5.34 26 4.68 26 4 26 C4 29.96 4 33.92 4 38 C3.67 38 3.34 38 3 38 C2.56661721 34.03539271 2.13964764 30.07014884 1.71826172 26.10424805 C1.50425974 24.10234813 1.28538227 22.10097132 1.06640625 20.09960938 C0.35317338 13.35786061 -0.17859905 6.77932211 0 0 Z " fill="#AFC8D1" transform="translate(35,86)"/>
<path d="M0 0 C0.99 0.763125 1.98 1.52625 3 2.3125 C8.10893915 6.16271501 13.40975732 9.73155947 18.71484375 13.30395508 C20.49337812 14.51156815 22.24908175 15.75268323 24 17 C24 17.33 24 17.66 24 18 C20.27056126 18.3614434 18.4553929 18.29150328 15.25390625 16.2421875 C13.92166016 15.07042969 13.92166016 15.07042969 12.5625 13.875 C11.14710937 12.64523438 11.14710937 12.64523438 9.703125 11.390625 C8.81109375 10.60171875 7.9190625 9.8128125 7 9 C5.6047984 7.87421664 4.20907822 6.74907516 2.8125 5.625 C1.884375 4.75875 0.95625 3.8925 0 3 C0 2.01 0 1.02 0 0 Z " fill="#1C1945" transform="translate(0,151)"/>
<path d="M0 0 C1.23556641 0.01740234 1.23556641 0.01740234 2.49609375 0.03515625 C3.32238281 0.04417969 4.14867188 0.05320312 5 0.0625 C5.63808594 0.07410156 6.27617188 0.08570312 6.93359375 0.09765625 C7.26359375 1.08765625 7.59359375 2.07765625 7.93359375 3.09765625 C4.57143005 6.75648146 1.57308523 9.24185966 -3.06640625 11.09765625 C-3.72640625 10.76765625 -4.38640625 10.43765625 -5.06640625 10.09765625 C-4.55078125 9.54078125 -4.03515625 8.98390625 -3.50390625 8.41015625 C-1.76492967 6.16302032 -1.76492967 6.16302032 -2.44140625 3.41015625 C-2.64765625 2.64703125 -2.85390625 1.88390625 -3.06640625 1.09765625 C-2.06640625 0.09765625 -2.06640625 0.09765625 0 0 Z " fill="#C17E59" transform="translate(62.06640625,121.90234375)"/>
<path d="M0 0 C1.78409802 3.06246747 2.22880021 5.22079273 2.125 8.75 C2.10695313 9.54921875 2.08890625 10.3484375 2.0703125 11.171875 C2.03550781 12.07679688 2.03550781 12.07679688 2 13 C0.02 13 -1.96 13 -4 13 C-4.06058594 12.38511719 -4.12117188 11.77023438 -4.18359375 11.13671875 C-4.26738281 10.32847656 -4.35117188 9.52023438 -4.4375 8.6875 C-4.51871094 7.88699219 -4.59992188 7.08648437 -4.68359375 6.26171875 C-4.95265693 3.83912821 -4.95265693 3.83912821 -6 1 C-3 0 -3 0 0 0 Z " fill="#64D4EA" transform="translate(111,134)"/>
<path d="M0 0 C2.97 0.495 2.97 0.495 6 1 C6.66 4.96 7.32 8.92 8 13 C6.35 13.33 4.7 13.66 3 14 C-0.44419134 4.58997722 -0.44419134 4.58997722 0 0 Z " fill="#64D5EC" transform="translate(119,119)"/>
<path d="M0 0 C0.99 0.495 0.99 0.495 2 1 C2 3.64 2 6.28 2 9 C3.65 9.33 5.3 9.66 7 10 C7 9.34 7 8.68 7 8 C9.375 6.3125 9.375 6.3125 12 5 C12.66 5.33 13.32 5.66 14 6 C16.12364481 6.22609337 16.12364481 6.22609337 17.625 4.5 C18.07875 4.005 18.5325 3.51 19 3 C19.66 3.33 20.32 3.66 21 4 C20.360625 4.515625 19.72125 5.03125 19.0625 5.5625 C16.44208319 8.65935623 16.30610183 11.02067623 16 15 C15.34 14.67 14.68 14.34 14 14 C14.33 12.35 14.66 10.7 15 9 C10.64464931 10.16142685 8.35380297 11.07699505 6 15 C4.68 14.01 3.36 13.02 2 12 C1.67 12.66 1.34 13.32 1 14 C1 13.01 1 12.02 1 11 C0.84626937 9.10307388 0.67833145 7.20727167 0.5 5.3125 C0.4071875 4.31863281 0.314375 3.32476562 0.21875 2.30078125 C0.1465625 1.54152344 0.074375 0.78226563 0 0 Z " fill="#2E2835" transform="translate(88,59)"/>
<path d="M0 0 C0.33 0 0.66 0 1 0 C1 1.65 1 3.3 1 5 C1.33 3.68 1.66 2.36 2 1 C4.475 1.99 4.475 1.99 7 3 C7 3.66 7 4.32 7 5 C8.65 5 10.3 5 12 5 C11.34 5.66 10.68 6.32 10 7 C8.33333333 7 6.66666667 7 5 7 C4.34 7.66 3.68 8.32 3 9 C2.34 8.67 1.68 8.34 1 8 C0.96261719 8.6290625 0.92523438 9.258125 0.88671875 9.90625 C0.43322879 15.81051149 -0.67976914 20.55250146 -3 26 C-4.32 25.01 -5.64 24.02 -7 23 C-6.67 22.34 -6.34 21.68 -6 21 C-4.515 21.99 -4.515 21.99 -3 23 C-1.22458462 15.36399015 -0.46569122 7.8187104 0 0 Z " fill="#4D8289" transform="translate(125,72)"/>
<path d="M0 0 C1.98 0.66 3.96 1.32 6 2 C6.33 4.64 6.66 7.28 7 10 C2.71 10.66 -1.58 11.32 -6 12 C-6 11.01 -6 10.02 -6 9 C-1.545 8.505 -1.545 8.505 3 8 C2.67 6.02 2.34 4.04 2 2 C1.34 2 0.68 2 0 2 C0 1.34 0 0.68 0 0 Z " fill="#DDE5D1" transform="translate(11,124)"/>
<path d="M0 0 C-0.33 1.32 -0.66 2.64 -1 4 C0.299375 3.79375 1.59875 3.5875 2.9375 3.375 C7.95407711 2.79371408 12.18246972 3.62193578 17 5 C17 5.33 17 5.66 17 6 C15.58847656 5.94779297 15.58847656 5.94779297 14.1484375 5.89453125 C12.90320313 5.86746094 11.65796875 5.84039062 10.375 5.8125 C9.14523438 5.77769531 7.91546875 5.74289063 6.6484375 5.70703125 C2.72017489 6.0224699 0.40605308 7.09720495 -3 9 C-3.66 9 -4.32 9 -5 9 C-5.33 7.02 -5.66 5.04 -6 3 C-2.25 0 -2.25 0 0 0 Z " fill="#3F3842" transform="translate(86,139)"/>
<path d="M0 0 C1.32 0 2.64 0 4 0 C4 2.31 4 4.62 4 7 C4.66 7 5.32 7 6 7 C6.66 9.31 7.32 11.62 8 14 C5.36 13.67 2.72 13.34 0 13 C0 8.71 0 4.42 0 0 Z " fill="#59BFD4" transform="translate(126,120)"/>
<path d="M0 0 C4.72346645 1.81671787 7.45757357 3.33542094 11 7 C13.1381966 7.7872678 13.1381966 7.7872678 15 8 C14.67 8.66 14.34 9.32 14 10 C15.65 10.33 17.3 10.66 19 11 C18.34 11.66 17.68 12.32 17 13 C12.54882447 12.7657276 11.03508942 11.03508942 8 8 C6.0040278 7.32136945 4.00431449 6.65358081 2 6 C0 3 0 3 0 0 Z " fill="#5C8B93" transform="translate(46,131)"/>
<path d="M0 0 C0.66 0.66 1.32 1.32 2 2 C-3.54891215 4.81849506 -7.741346 6.5326514 -14 6 C-14 5.01 -14 4.02 -14 3 C-5.24191063 -0.62403698 -5.24191063 -0.62403698 0 0 Z " fill="#5CC3DA" transform="translate(130,157)"/>
<path d="M0 0 C0.66 0.66 1.32 1.32 2 2 C1.67 2.66 1.34 3.32 1 4 C1.886875 3.484375 2.77375 2.96875 3.6875 2.4375 C7.24935639 0.89178874 8.41936144 0.7419378 12 2 C12.99 2.66 13.98 3.32 15 4 C15 4.66 15 5.32 15 6 C8.56688704 6.09507063 2.34241995 6.15316726 -4 5 C-3.525625 4.54625 -3.05125 4.0925 -2.5625 3.625 C-0.90972192 2.06741796 -0.90972192 2.06741796 0 0 Z " fill="#92A7AB" transform="translate(80,144)"/>
<path d="M0 0 C0.66 0.33 1.32 0.66 2 1 C2 2.32 2 3.64 2 5 C0.35 5 -1.3 5 -3 5 C-2.67 6.65 -2.34 8.3 -2 10 C-2.78246094 10.48210937 -3.56492187 10.96421875 -4.37109375 11.4609375 C-5.38300781 12.09257813 -6.39492187 12.72421875 -7.4375 13.375 C-8.44683594 14.00148437 -9.45617187 14.62796875 -10.49609375 15.2734375 C-13.08011063 16.75816302 -13.08011063 16.75816302 -14 19 C-15.65 18.67 -17.3 18.34 -19 18 C-19 17.34 -19 16.68 -19 16 C-17.80375 15.608125 -16.6075 15.21625 -15.375 14.8125 C-11.05179434 13.17398967 -8.20009256 11.36009719 -5 8 C-4.49620971 5.28694223 -4.49620971 5.28694223 -5 3 C-3.35 3.33 -1.7 3.66 0 4 C0 2.68 0 1.36 0 0 Z " fill="#1A2848" transform="translate(110,114)"/>
<path d="M0 0 C0.86882813 0.07863281 1.73765625 0.15726562 2.6328125 0.23828125 C4.875 0.6875 4.875 0.6875 6.875 2.6875 C5.59625 2.81125 4.3175 2.935 3 3.0625 C-0.47290936 3.37792399 -0.47290936 3.37792399 -3.125 5.6875 C-5.11321313 6.08514263 -7.11444339 6.42525349 -9.125 6.6875 C-9.125 4.7075 -9.125 2.7275 -9.125 0.6875 C-5.92357356 -0.30270864 -3.32514399 -0.3325144 0 0 Z " fill="#F4EFD7" transform="translate(53.125,118.3125)"/>
<path d="M0 0 C1.2065625 0.0309375 1.2065625 0.0309375 2.4375 0.0625 C2.49145478 1.68713842 2.53027195 3.31228541 2.5625 4.9375 C2.58570313 5.84242187 2.60890625 6.74734375 2.6328125 7.6796875 C2.4375 10.0625 2.4375 10.0625 0.4375 12.0625 C-4.2366573 5.78160112 -4.2366573 5.78160112 -3.5625 1.0625 C-2.5625 0.0625 -2.5625 0.0625 0 0 Z " fill="#EAE9E0" transform="translate(153.5625,95.9375)"/>
<path d="M0 0 C0.33 0 0.66 0 1 0 C1.33 7.26 1.66 14.52 2 22 C3.98 22.33 5.96 22.66 8 23 C8 23.33 8 23.66 8 24 C6.35 24.33 4.7 24.66 3 25 C2.67 25.99 2.34 26.98 2 28 C-0.53875351 20.63921151 -4.43217836 9.32039016 -1 1.8125 C-0.67 1.214375 -0.34 0.61625 0 0 Z " fill="#37697C" transform="translate(102,89)"/>
<path d="M0 0 C1.98 0 3.96 0 6 0 C6 1.65 6 3.3 6 5 C2.71303767 5.79953138 1.28976808 6.09658936 -2 5 C-2 6.98 -2 8.96 -2 11 C-0.35 11.33 1.3 11.66 3 12 C0 13 0 13 -3 12 C-3.33 9.69 -3.66 7.38 -4 5 C-2.68 4.67 -1.36 4.34 0 4 C0 2.68 0 1.36 0 0 Z " fill="#437A88" transform="translate(122,107)"/>
<path d="M0 0 C0.33 0 0.66 0 1 0 C1.33937108 2.97858727 1.67162259 5.95769685 2 8.9375 C2.09539063 9.76830078 2.19078125 10.59910156 2.2890625 11.45507812 C3.95902645 26.78296152 3.95902645 26.78296152 1 32 C0.63071719 28.35553573 0.28238188 24.70934777 -0.0625 21.0625 C-0.16626953 20.04091797 -0.27003906 19.01933594 -0.37695312 17.96679688 C-0.95165242 11.76400799 -0.9192107 6.16449691 0 0 Z " fill="#446772" transform="translate(13,65)"/>
<path d="M0 0 C0 1.32 0 2.64 0 4 C-0.92232422 4.27263672 -0.92232422 4.27263672 -1.86328125 4.55078125 C-2.67152344 4.80214844 -3.47976562 5.05351562 -4.3125 5.3125 C-5.51326172 5.67794922 -5.51326172 5.67794922 -6.73828125 6.05078125 C-9.09964573 7.04182023 -10.33879993 8.08074943 -12 10 C-12.99 9.67 -13.98 9.34 -15 9 C-13.87895467 7.68412059 -12.75303035 6.37239647 -11.625 5.0625 C-10.99851562 4.33160156 -10.37203125 3.60070312 -9.7265625 2.84765625 C-6.67048001 -0.42276687 -4.32533221 -0.09402896 0 0 Z " fill="#6D4837" transform="translate(92,134)"/>
<path d="M0 0 C0 1.32 0 2.64 0 4 C-0.66 4 -1.32 4 -2 4 C-2.309375 4.61875 -2.61875 5.2375 -2.9375 5.875 C-5.03655654 10.07311309 -6.66597754 10.97130864 -11 13 C-10.47164489 8.92309777 -9.35324283 6.74382266 -6.625 3.6875 C-6.01914063 2.99011719 -5.41328125 2.29273438 -4.7890625 1.57421875 C-3 0 -3 0 0 0 Z " fill="#888889" transform="translate(11,46)"/>
<path d="M0 0 C1.11375 0.2475 1.11375 0.2475 2.25 0.5 C5.19006578 1.11925696 5.19006578 1.11925696 9 1 C9.103125 1.763125 9.20625 2.52625 9.3125 3.3125 C10.04364039 6.17059424 10.76951913 7.15742885 13 9 C12.01 9.33 11.02 9.66 10 10 C7.83326695 8.45233354 5.88310984 6.88310984 4 5 C2.34051852 3.98812105 0.67419438 2.9873454 -1 2 C-0.67 1.34 -0.34 0.68 0 0 Z " fill="#508188" transform="translate(64,138)"/>
<path d="M0 0 C0.625 1.75 0.625 1.75 1 4 C0.67 4.598125 0.34 5.19625 0 5.8125 C-1.48971466 9.07125081 -0.65724949 11.53450267 0 15 C0.185625 16.134375 0.37125 17.26875 0.5625 18.4375 C0.706875 19.283125 0.85125 20.12875 1 21 C0.34 21.33 -0.32 21.66 -1 22 C-1.71614583 20.27473958 -2.43229167 18.54947917 -3.1484375 16.82421875 C-4.06806692 14.73466068 -4.06806692 14.73466068 -6 12 C-6.125 9.3125 -6.125 9.3125 -6 7 C-5.67 8.32 -5.34 9.64 -5 11 C-4.34 11 -3.68 11 -3 11 C-2.87625 9.9275 -2.7525 8.855 -2.625 7.75 C-2.10356064 4.62136385 -1.59911746 2.66519576 0 0 Z " fill="#284D62" transform="translate(142,92)"/>
<path d="M0 0 C0.99 0.33 1.98 0.66 3 1 C3 1.66 3 2.32 3 3 C3.99 3.33 4.98 3.66 6 4 C6 5.98 6 7.96 6 10 C5.34 10 4.68 10 4 10 C4 9.01 4 8.02 4 7 C2.02 7 0.04 7 -2 7 C-1.125 1.125 -1.125 1.125 0 0 Z " fill="#3B5E6F" transform="translate(124,100)"/>
<path d="M0 0 C0.66 0.33 1.32 0.66 2 1 C2 3.31 2 5.62 2 8 C0.35 8 -1.3 8 -3 8 C-2.67 8.99 -2.34 9.98 -2 11 C-4.35438733 12.42944945 -5.48032433 13.08661261 -8.25 12.625 C-8.8275 12.41875 -9.405 12.2125 -10 12 C-10 11.34 -10 10.68 -10 10 C-6.66666667 8.33333333 -3.33333333 6.66666667 0 5 C0 3.35 0 1.7 0 0 Z " fill="#2D283D" transform="translate(69,122)"/>
<path d="M0 0 C0.33 0 0.66 0 1 0 C1.33 5.28 1.66 10.56 2 16 C0.68 16 -0.64 16 -2 16 C-2 13.69 -2 11.38 -2 9 C-2.66 10.32 -3.32 11.64 -4 13 C-4.33 11.35 -4.66 9.7 -5 8 C-3.35 7.67 -1.7 7.34 0 7 C0 4.69 0 2.38 0 0 Z " fill="#574342" transform="translate(118,51)"/>
<path d="M0 0 C0.81210938 0.29003906 1.62421875 0.58007812 2.4609375 0.87890625 C3.27820313 1.16636719 4.09546875 1.45382813 4.9375 1.75 C5.56398438 1.97816406 6.19046875 2.20632812 6.8359375 2.44140625 C6.1759375 3.76140625 5.5159375 5.08140625 4.8359375 6.44140625 C0.8025841 6.44140625 -0.99923788 4.83260707 -4.1640625 2.44140625 C-4.1640625 1.78140625 -4.1640625 1.12140625 -4.1640625 0.44140625 C-2.1640625 -0.55859375 -2.1640625 -0.55859375 0 0 Z " fill="#EBE5CE" transform="translate(70.1640625,129.55859375)"/>
<path d="M0 0 C0 4.29 0 8.58 0 13 C-0.33 13 -0.66 13 -1 13 C-1.33 9.37 -1.66 5.74 -2 2 C-4.64 2.33 -7.28 2.66 -10 3 C-10.66 2.01 -11.32 1.02 -12 0 C-7.33328651 -1.00001003 -4.96698865 -0.82783144 0 0 Z " fill="#638090" transform="translate(34,61)"/>
<path d="M0 0 C0.8353125 1.1446875 0.8353125 1.1446875 1.6875 2.3125 C3.99517252 4.99438969 5.99212384 6.22612432 9 8 C10.8125 10.1875 10.8125 10.1875 12 12 C11.34 12 10.68 12 10 12 C9.67 12.66 9.34 13.32 9 14 C7.48806095 12.42806337 5.99078579 10.84201199 4.5 9.25 C3.6646875 8.36828125 2.829375 7.4865625 1.96875 6.578125 C0 4 0 4 0 0 Z " fill="#6B7678" transform="translate(45,132)"/>
<path d="M0 0 C0.66 0.33 1.32 0.66 2 1 C1.01 2.485 1.01 2.485 0 4 C0 4.99 0 5.98 0 7 C-1.5 9.1875 -1.5 9.1875 -3 11 C-3.99 10.67 -4.98 10.34 -6 10 C-5.67 8.02 -5.34 6.04 -5 4 C-4.34 4 -3.68 4 -3 4 C-3 3.34 -3 2.68 -3 2 C-2.01 1.34 -1.02 0.68 0 0 Z " fill="#2A242C" transform="translate(51,122)"/>
<path d="M0 0 C0.33 0 0.66 0 1 0 C1.144375 1.2375 1.28875 2.475 1.4375 3.75 C1.78688502 6.56504499 2.20379366 9.2701497 3 12 C1.68 12.33 0.36 12.66 -1 13 C-1.33 12.34 -1.66 11.68 -2 11 C-2.99 11.495 -2.99 11.495 -4 12 C-6.625 10.5625 -6.625 10.5625 -9 9 C-7 8 -7 8 -3 9 C-2.01 6.03 -1.02 3.06 0 0 Z " fill="#42767E" transform="translate(13,100)"/>
<path d="M0 0 C2.25 0.875 2.25 0.875 3.25 2.875 C1.27 2.875 -0.71 2.875 -2.75 2.875 C-3.41 4.855 -4.07 6.835 -4.75 8.875 C-5.41 8.875 -6.07 8.875 -6.75 8.875 C-7.08 7.225 -7.41 5.575 -7.75 3.875 C-3.47273325 -0.15785151 -3.47273325 -0.15785151 0 0 Z " fill="#418B9B" transform="translate(153.75,92.125)"/>
<path d="M0 0 C0.33 0.99 0.66 1.98 1 3 C1.99 3.33 2.98 3.66 4 4 C4 5.65 4 7.3 4 9 C1.69 8.67 -0.62 8.34 -3 8 C-2.67 7.34 -2.34 6.68 -2 6 C-2.66 5.34 -3.32 4.68 -4 4 C-2.68 2.68 -1.36 1.36 0 0 Z " fill="#2E373D" transform="translate(54,128)"/>
<path d="M0 0 C3.63 0.66 7.26 1.32 11 2 C11 2.33 11 2.66 11 3 C10.11957031 3.02578125 9.23914063 3.0515625 8.33203125 3.078125 C6.58986328 3.16320312 6.58986328 3.16320312 4.8125 3.25 C3.08966797 3.31960937 3.08966797 3.31960937 1.33203125 3.390625 C-2.48260114 4.08826 -4.20961189 5.37251591 -7 8 C-7 5 -7 5 -6 2 C-4.02 1.67 -2.04 1.34 0 1 C0 0.67 0 0.34 0 0 Z " fill="#715A4F" transform="translate(58,119)"/>
<path d="M0 0 C1.39214652 4.17643955 -0.29335734 6.83437793 -1.9375 10.6875 C-2.22818359 11.38939453 -2.51886719 12.09128906 -2.81835938 12.81445312 C-3.53710313 14.54650775 -4.26745331 16.27373781 -5 18 C-5.66 18 -6.32 18 -7 18 C-6.54166025 12.34714306 -4.13078822 4.13078822 0 0 Z " fill="#31AFC5" transform="translate(11,110)"/>
<path d="M0 0 C0.33 0 0.66 0 1 0 C1 3.3 1 6.6 1 10 C-1.97 9.505 -1.97 9.505 -5 9 C-5 8.01 -5 7.02 -5 6 C-4.01 5.34 -3.02 4.68 -2 4 C-0.80767387 1.94996045 -0.80767387 1.94996045 0 0 Z " fill="#20A7BA" transform="translate(168,148)"/>
<path d="M0 0 C0 0.66 0 1.32 0 2 C2.31 2.33 4.62 2.66 7 3 C7 3.33 7 3.66 7 4 C5.56344146 4.08131463 4.1255517 4.13933559 2.6875 4.1875 C1.48673828 4.23970703 1.48673828 4.23970703 0.26171875 4.29296875 C-2.53324585 3.9309267 -3.11855926 3.0041434 -5 1 C-8.61023099 0.26958147 -8.61023099 0.26958147 -12 0 C-12 -0.33 -12 -0.66 -12 -1 C-7.48281619 -2.36884358 -4.41225737 -1.47075246 0 0 Z " fill="#3D727A" transform="translate(12,140)"/>
<path d="M0 0 C1.1653125 -0.00257813 2.330625 -0.00515625 3.53125 -0.0078125 C6.5 0.125 6.5 0.125 8.5 1.125 C8.5 1.785 8.5 2.445 8.5 3.125 C2.47364389 3.24316385 -2.73569031 3.04643656 -8.5 1.125 C-5.64804778 -0.30097611 -3.17538825 -0.0070252 0 0 Z " fill="#305368" transform="translate(121.5,151.875)"/>
<path d="M0 0 C0.66 0.33 1.32 0.66 2 1 C2.4140625 3.06640625 2.4140625 3.06640625 2.625 5.5625 C2.69976563 6.38878906 2.77453125 7.21507813 2.8515625 8.06640625 C2.90054687 8.70449219 2.94953125 9.34257813 3 10 C2.01 10 1.02 10 0 10 C0 9.34 0 8.68 0 8 C-0.66 8 -1.32 8 -2 8 C-1.125 2.25 -1.125 2.25 0 0 Z " fill="#23A5BA" transform="translate(13,115)"/>
<path d="M0 0 C1.75098126 2.62647188 3.38731308 5.28775382 5 8 C5.66 7.67 6.32 7.34 7 7 C6.67 8.65 6.34 10.3 6 12 C3.2556051 10.95902262 2.0212861 10.02715813 0.1875 7.6875 C-1.18729237 4.5761278 -1.00295901 3.19123321 0 0 Z " fill="#4E7D86" transform="translate(149,99)"/>
<path d="M0 0 C0.33 0 0.66 0 1 0 C1.14285714 7.42857143 1.14285714 7.42857143 0 11 C-1.65 10.67 -3.3 10.34 -5 10 C-5.33 8.68 -5.66 7.36 -6 6 C-4.02 6 -2.04 6 0 6 C0 4.02 0 2.04 0 0 Z " fill="#5FC7DD" transform="translate(110,107)"/>
<path d="M0 0 C0.66 0.66 1.32 1.32 2 2 C1.505 2.61875 1.01 3.2375 0.5 3.875 C-1.19222773 5.83880904 -1.19222773 5.83880904 -1 8 C-2.98 7.34 -4.96 6.68 -7 6 C-7 5.01 -7 4.02 -7 3 C-4.69 2.01 -2.38 1.02 0 0 Z " fill="#1B3253" transform="translate(154,127)"/>
<path d="M0 0 C0.66 1.98 1.32 3.96 2 6 C-1.3 5.34 -4.6 4.68 -8 4 C-3.375 0 -3.375 0 0 0 Z " fill="#1C788B" transform="translate(109,124)"/>
<path d="M0 0 C0.99 0.33 1.98 0.66 3 1 C2.67 1.66 2.34 2.32 2 3 C1.93003986 4.70702735 1.91559846 6.41668003 1.9375 8.125 C1.95103516 9.49011719 1.95103516 9.49011719 1.96484375 10.8828125 C1.97644531 11.58148438 1.98804687 12.28015625 2 13 C1.01 13 0.02 13 -1 13 C-1.33 12.34 -1.66 11.68 -2 11 C-1.67 10.34 -1.34 9.68 -1 9 C-0.77532169 7.46331135 -0.59203195 5.92031946 -0.4375 4.375 C-0.35371094 3.55773437 -0.26992187 2.74046875 -0.18359375 1.8984375 C-0.12300781 1.27195312 -0.06242187 0.64546875 0 0 Z " fill="#25182D" transform="translate(114,67)"/>
<path d="M0 0 C-0.33 0.99 -0.66 1.98 -1 3 C-5.29299643 4.26264601 -7.87831311 3.62950412 -12 2 C-7.57703297 -0.94864468 -5.15145854 -1.28786464 0 0 Z " fill="#354B54" transform="translate(73,136)"/>
<path d="M0 0 C3 3.625 3 3.625 3 7 C1.02 7.33 -0.96 7.66 -3 8 C-2.01 5.36 -1.02 2.72 0 0 Z " fill="#82DBE6" transform="translate(9,124)"/>
<path d="M0 0 C0.33 0 0.66 0 1 0 C1.33 1.98 1.66 3.96 2 6 C2.66 5.67 3.32 5.34 4 5 C4 8.3 4 11.6 4 15 C1 13 1 13 0.3125 10.875 C-0.08477078 7.22010878 -0.06231163 3.67638613 0 0 Z " fill="#427582" transform="translate(16,98)"/>
<path d="M0 0 C0.63808594 0.08378906 1.27617187 0.16757813 1.93359375 0.25390625 C3.17302734 0.40666016 3.17302734 0.40666016 4.4375 0.5625 C5.26121094 0.66691406 6.08492187 0.77132812 6.93359375 0.87890625 C7.61550781 0.91886719 8.29742187 0.95882812 9 1 C9.33 0.67 9.66 0.34 10 0 C11.66617115 -0.04063832 13.33388095 -0.042721 15 0 C14.67 0.99 14.34 1.98 14 3 C10.61201059 4.51849075 8.1675025 3.68667845 4.75 2.5625 C3.85796875 2.27503906 2.9659375 1.98757812 2.046875 1.69140625 C1.37140625 1.46324219 0.6959375 1.23507813 0 1 C0 0.67 0 0.34 0 0 Z " fill="#31556A" transform="translate(139,151)"/>
<path d="M0 0 C0.33 1.32 0.66 2.64 1 4 C3.97 4.495 3.97 4.495 7 5 C7 6.32 7 7.64 7 9 C5.35 9 3.7 9 2 9 C2.33 8.34 2.66 7.68 3 7 C1.68 5.68 0.36 4.36 -1 3 C-0.67 2.01 -0.34 1.02 0 0 Z " fill="#2C3D45" transform="translate(73,139)"/>
<path d="M0 0 C0 1.65 0 3.3 0 5 C-2.375 5.1875 -2.375 5.1875 -5 5 C-5.66 4.01 -6.32 3.02 -7 2 C-4.35261084 0.5393715 -3.10551666 0 0 0 Z " fill="#69D3E7" transform="translate(103,68)"/>
<path d="M0 0 C0 0.66 0 1.32 0 2 C-3.05693322 3.52846661 -5.62984547 3.23242445 -9 3 C-11.2265625 1.484375 -11.2265625 1.484375 -13 0 C-11.39679026 -0.19551338 -9.79237014 -0.38111983 -8.1875 -0.5625 C-7.29417969 -0.66691406 -6.40085937 -0.77132812 -5.48046875 -0.87890625 C-3 -1 -3 -1 0 0 Z " fill="#424A55" transform="translate(98,150)"/>
<path d="M0 0 C1.4800841 0.11362262 2.95910074 0.24122908 4.4375 0.375 C5.26121094 0.44460937 6.08492187 0.51421875 6.93359375 0.5859375 C7.95646484 0.79089844 7.95646484 0.79089844 9 1 C9.33 1.66 9.66 2.32 10 3 C6.7 3 3.4 3 0 3 C0 2.01 0 1.02 0 0 Z " fill="#ADE6DC" transform="translate(22,127)"/>
<path d="M0 0 C1.98 0.66 3.96 1.32 6 2 C6 3.65 6 5.3 6 7 C5.01 7.495 5.01 7.495 4 8 C4 7.01 4 6.02 4 5 C2.68 4.67 1.36 4.34 0 4 C0 2.68 0 1.36 0 0 Z " fill="#A39996" transform="translate(90,71)"/>
<path d="M0 0 C-3.74525799 3.74525799 -7.98270909 3.68909949 -13 4 C-4.66666667 -1.55555556 -4.66666667 -1.55555556 0 0 Z " fill="#1D2243" transform="translate(133,160)"/>
<path d="M0 0 C0.99 0.33 1.98 0.66 3 1 C1.8553125 1.8971875 1.8553125 1.8971875 0.6875 2.8125 C-1.3483575 4.46959332 -3.1978279 6.10297674 -5 8 C-5.99 7.67 -6.98 7.34 -8 7 C-6.74057614 5.80040625 -5.46704714 4.61560557 -4.1875 3.4375 C-3.12595703 2.44556641 -3.12595703 2.44556641 -2.04296875 1.43359375 C-1.36878906 0.96050781 -0.69460937 0.48742187 0 0 Z " fill="#AE7455" transform="translate(85,136)"/>
<path d="M0 0 C1.65 0 3.3 0 5 0 C5 1.65 5 3.3 5 5 C4.01 5.33 3.02 5.66 2 6 C1.34 4.02 0.68 2.04 0 0 Z " fill="#F0F0EB" transform="translate(123,107)"/>
<path d="M0 0 C0.625 1.8125 0.625 1.8125 1 4 C0.01 5.485 0.01 5.485 -1 7 C-2.32 6.34 -3.64 5.68 -5 5 C-3.35 3.35 -1.7 1.7 0 0 Z " fill="#120A34" transform="translate(114,78)"/>
<path d="M0 0 C1.65 0.99 3.3 1.98 5 3 C4.67 3.66 4.34 4.32 4 5 C3.01 4.67 2.02 4.34 1 4 C-1.14255793 4.38932856 -1.14255793 4.38932856 -3 5 C-3 4.01 -3 3.02 -3 2 C-2.01 1.34 -1.02 0.68 0 0 Z " fill="#6B8284" transform="translate(67,132)"/>
<path d="M0 0 C3.465 1.485 3.465 1.485 7 3 C5.68 4.32 4.36 5.64 3 7 C0 3.375 0 3.375 0 0 Z " fill="#58686D" transform="translate(46,131)"/>
<path d="M0 0 C0.33 0 0.66 0 1 0 C1.66 4.29 2.32 8.58 3 13 C2.01 13.495 2.01 13.495 1 14 C-0.512545 8.83955235 -1.33500455 5.34001821 0 0 Z " fill="#56B7CB" transform="translate(112,122)"/>
<path d="M0 0 C1.98 0.99 3.96 1.98 6 3 C6 3.66 6 4.32 6 5 C4.02 5 2.04 5 0 5 C-0.5625 3.0625 -0.5625 3.0625 -1 1 C-0.67 0.67 -0.34 0.34 0 0 Z " fill="#2A8794" transform="translate(21,121)"/>
<path d="M0 0 C0 3 0 3 -2 6 C-3.96752828 7.06246527 -5.96587579 8.07137808 -8 9 C-6.4169423 4.7257442 -3.49431596 2.73468206 0 0 Z " fill="#AEACA3" transform="translate(8,50)"/>
<path d="M0 0 C-0.99 0.495 -0.99 0.495 -2 1 C-2 1.66 -2 2.32 -2 3 C-3.65 2.67 -5.3 2.34 -7 2 C-7 1.34 -7 0.68 -7 0 C-4.3333581 -1.33332095 -2.83319697 -0.67102033 0 0 Z " fill="#667F85" transform="translate(92,146)"/>
<path d="M0 0 C2.88437779 1.29299694 4.87219421 2.65941363 7 5 C6.01 5.33 5.02 5.66 4 6 C1.3125 4.0625 1.3125 4.0625 -1 2 C-0.67 1.34 -0.34 0.68 0 0 Z " fill="#5B939D" transform="translate(70,142)"/>
<path d="M0 0 C0.33 1.32 0.66 2.64 1 4 C2.65 4.33 4.3 4.66 6 5 C6 5.99 6 6.98 6 8 C4.02 7.34 2.04 6.68 0 6 C0 4.02 0 2.04 0 0 Z " fill="#3D737F" transform="translate(71,125)"/>
<path d="M0 0 C2.64 0 5.28 0 8 0 C6.68 0.33 5.36 0.66 4 1 C4.99 1.66 5.98 2.32 7 3 C5.02 3.99 5.02 3.99 3 5 C1.5 3.625 1.5 3.625 0 2 C0 1.34 0 0.68 0 0 Z " fill="#463736" transform="translate(97,80)"/>
<path d="M0 0 C2.31 1.65 4.62 3.3 7 5 C6.01 5.66 5.02 6.32 4 7 C2 5.1875 2 5.1875 0 3 C0 2.01 0 1.02 0 0 Z " fill="#333255" transform="translate(0,151)"/>
<path d="M0 0 C-0.25 1.875 -0.25 1.875 -1 4 C-3.0625 5.25 -3.0625 5.25 -5 6 C-5 4.68 -5 3.36 -5 2 C-2 0 -2 0 0 0 Z " fill="#543B2E" transform="translate(86,139)"/>
<path d="M0 0 C4 5 4 5 8 10 C4.63362603 8.5572683 2.33497429 6.83532593 0 4 C0 2.68 0 1.36 0 0 Z " fill="#BBCFCC" transform="translate(45,132)"/>
<path d="M0 0 C1.65 0.33 3.3 0.66 5 1 C5.33 1.99 5.66 2.98 6 4 C3.03 3.67 0.06 3.34 -3 3 C-2.01 2.67 -1.02 2.34 0 2 C0 1.34 0 0.68 0 0 Z " fill="#856049" transform="translate(86,129)"/>
<path d="M0 0 C0.66 0.33 1.32 0.66 2 1 C2 2.32 2 3.64 2 5 C0.35 5 -1.3 5 -3 5 C-3.33 5.99 -3.66 6.98 -4 8 C-4.33 6.35 -4.66 4.7 -5 3 C-2.525 3.495 -2.525 3.495 0 4 C0 2.68 0 1.36 0 0 Z " fill="#2D5A66" transform="translate(110,114)"/>
<path d="M0 0 C1.32 0 2.64 0 4 0 C4 0.99 4 1.98 4 3 C2.02 3.66 0.04 4.32 -2 5 C-1.34 3.35 -0.68 1.7 0 0 Z " fill="#515252" transform="translate(83,143)"/>
<path d="M0 0 C2.31 0 4.62 0 7 0 C7.33 0.66 7.66 1.32 8 2 C5.36 2.33 2.72 2.66 0 3 C0 2.01 0 1.02 0 0 Z " fill="#F0EED1" transform="translate(5,133)"/>
<path d="M0 0 C0.66 0.33 1.32 0.66 2 1 C1.01 2.485 1.01 2.485 0 4 C0 4.99 0 5.98 0 7 C-0.99 6.67 -1.98 6.34 -3 6 C-3 4.68 -3 3.36 -3 2 C-2.01 1.34 -1.02 0.68 0 0 Z " fill="#3C2B2D" transform="translate(51,122)"/>
<path d="M0 0 C0 0.66 0 1.32 0 2 C-0.66 2 -1.32 2 -2 2 C-2.33 3.65 -2.66 5.3 -3 7 C-3.66 6.67 -4.32 6.34 -5 6 C-5 4.35 -5 2.7 -5 1 C-2 0 -2 0 0 0 Z " fill="#5E6B72" transform="translate(48,124)"/>
<path d="M0 0 C2 2 2 2 2.125 5.125 C2.08375 6.07375 2.0425 7.0225 2 8 C1.34 6.68 0.68 5.36 0 4 C-1.65 4 -3.3 4 -5 4 C-5 3.67 -5 3.34 -5 3 C-3.35 3 -1.7 3 0 3 C0 2.01 0 1.02 0 0 Z " fill="#1F5161" transform="translate(111,130)"/>
<path d="M0 0 C0.33 0.99 0.66 1.98 1 3 C-2.13349732 4.04449911 -2.98968256 3.93423645 -6 3 C-6 2.34 -6 1.68 -6 1 C-3 0 -3 0 0 0 Z " fill="#1B1A33" transform="translate(65,131)"/>
</svg>
